<svg aria-hidden="true" style="position: absolute; width: 0; height: 0; overflow: hidden;" version="1.1" xmlns="http://www.w3.org/2000/svg" xmlns:xlink="http://www.w3.org/1999/xlink">
<defs>
<symbol id="icon-instagram" viewBox="0 0 32 32">
<path d="M19.063 16c0 1.691-1.371 3.063-3.063 3.063s-3.063-1.371-3.063-3.063c0-1.691 1.371-3.063 3.063-3.063s3.063 1.371 3.063 3.063z"></path>
<path d="M23.162 10.582c-0.147-0.399-0.382-0.76-0.687-1.056-0.296-0.305-0.657-0.54-1.056-0.687-0.324-0.126-0.81-0.275-1.706-0.316-0.969-0.044-1.26-0.054-3.713-0.054s-2.744 0.009-3.713 0.053c-0.896 0.041-1.382 0.191-1.706 0.316-0.399 0.147-0.76 0.382-1.056 0.687-0.305 0.296-0.54 0.657-0.688 1.056-0.126 0.324-0.275 0.81-0.316 1.706-0.044 0.969-0.054 1.259-0.054 3.713s0.010 2.744 0.054 3.713c0.041 0.896 0.19 1.382 0.316 1.706 0.147 0.399 0.382 0.76 0.687 1.056 0.296 0.305 0.657 0.54 1.056 0.687 0.324 0.126 0.81 0.276 1.706 0.316 0.969 0.044 1.259 0.053 3.712 0.053s2.744-0.009 3.713-0.053c0.896-0.041 1.382-0.19 1.706-0.316 0.801-0.309 1.435-0.942 1.744-1.744 0.126-0.324 0.275-0.81 0.316-1.706 0.044-0.969 0.053-1.26 0.053-3.713s-0.009-2.744-0.053-3.713c-0.041-0.896-0.19-1.382-0.316-1.706zM16 20.718c-2.606 0-4.718-2.112-4.718-4.718s2.112-4.718 4.718-4.718c2.605 0 4.718 2.112 4.718 4.718s-2.112 4.718-4.718 4.718zM20.904 12.198c-0.609 0-1.103-0.494-1.103-1.103s0.494-1.103 1.103-1.103c0.609 0 1.103 0.494 1.103 1.103s-0.494 1.103-1.103 1.103z"></path>
<path d="M16 0c-8.835 0-16 7.165-16 16s7.165 16 16 16c8.835 0 16-7.165 16-16s-7.165-16-16-16zM25.132 19.788c-0.044 0.978-0.2 1.646-0.427 2.23-0.477 1.234-1.453 2.21-2.687 2.687-0.584 0.227-1.252 0.382-2.23 0.427-0.98 0.045-1.293 0.055-3.788 0.055s-2.808-0.011-3.788-0.055c-0.978-0.045-1.646-0.2-2.23-0.427-0.613-0.231-1.168-0.592-1.627-1.060-0.467-0.459-0.829-1.014-1.060-1.627-0.227-0.584-0.383-1.252-0.427-2.23-0.045-0.98-0.056-1.293-0.056-3.788s0.011-2.808 0.055-3.788c0.044-0.978 0.2-1.646 0.427-2.23 0.231-0.613 0.593-1.168 1.060-1.627 0.459-0.468 1.014-0.829 1.627-1.060 0.584-0.227 1.252-0.382 2.23-0.427 0.98-0.045 1.293-0.055 3.788-0.055s2.808 0.011 3.788 0.056c0.978 0.044 1.646 0.2 2.23 0.426 0.613 0.231 1.168 0.593 1.627 1.060 0.467 0.459 0.829 1.014 1.060 1.627 0.227 0.584 0.383 1.252 0.427 2.23 0.045 0.98 0.055 1.293 0.055 3.788s-0.011 2.808-0.055 3.788z"></path>
</symbol>
<symbol id="icon-leaf" viewBox="0 0 32 32">
<path d="M27.611 5.395c-0.277-0.121-0.591-0.043-0.782 0.195-2.369 2.941-9.303 3.385-11.373 3.451-0.501 0.016-1.017 0.077-1.533 0.183-10.284 2.093-10.127 9.657-9.835 11.925 0.048 0.375 0.3 0.681 0.657 0.8 0.354 0.118 0.734 0.022 0.994-0.246 1.201-1.245 3.836-3.485 7.976-4.493 1.711-0.416 3.334-1.18 4.778-2.056-1.688 1.282-3.865 2.666-6.621 3.96-2.763 1.298-4.793 3.548-5.538 4.455-0.17 0.206-0.247 0.477-0.212 0.741 0.036 0.268 0.184 0.511 0.406 0.669 0.707 0.502 1.55 0.907 2.503 1.204 1.027 0.319 2.084 0.477 3.143 0.477 2.14 0 4.282-0.643 6.165-1.891 7.232-4.794 9.22-15.515 9.656-18.686 0.041-0.294-0.113-0.571-0.384-0.689z"></path>
</symbol>
<symbol id="icon-phone" viewBox="0 0 32 32">
<path d="M8.014 21.843h3.593c-0.124-0.131-0.232-0.279-0.322-0.442l-0.572-0.76c-0.418 0.135-0.8 0.269-1.127 0.394-0.097 0.037-0.199 0.064-0.302 0.080-0.304 0.048-0.611 0.004-0.889-0.128-0.372-0.177-0.659-0.503-0.787-0.894l-0.726-2.208v8.513h15.078l-0.289-0.534h-13.657c-0.317 0-0.575-0.257-0.575-0.575v-2.872c0-0.317 0.257-0.574 0.575-0.574z"></path>
<path d="M23.211 14.878h-0.621l-3.786 3.709 2.773 0.173c0.545 0.034 1.048 0.277 1.414 0.662v-2.443h0.024c0.083-0.736 0.387-1.407 0.843-1.944-0.195-0.099-0.415-0.156-0.648-0.156z"></path>
<path d="M4.903 30.089v0.702h1.734v-0.695h-1.604c-0.043 0-0.087-0.003-0.13-0.007z"></path>
<path d="M23.965 30.095h-0.727v0.695h1.103c-0.014-0.025-0.028-0.050-0.041-0.076l-0.336-0.62z"></path>
<path d="M23.741 29.683l-1.557-2.872h-15.715v-9.419c-0-1.786-1.448-3.235-3.235-3.235s-3.235 1.448-3.235 3.235 1.448 3.235 3.235 3.235c0.123 0 0.244-0.007 0.363-0.021l-0 7.641c0 0.378 0.153 0.748 0.421 1.016s0.637 0.42 1.015 0.42h18.708z"></path>
<path d="M23.406 17.391h-0.001v2.64l2.872 5.35v-4.776c0.119 0.013 0.241 0.021 0.364 0.021 1.787 0 3.235-1.448 3.235-3.235 0-0.586-0.156-1.134-0.429-1.608l-4.928-0.832c-0.681 0.593-1.112 1.466-1.112 2.44z"></path>
<path d="M13.941 2.528c0.061-0.223 0.176-0.422 0.327-0.586l-1.482-1.359c-0.112-0.102-0.287-0.095-0.389 0.017l-1.146 1.249c-0.102 0.112-0.095 0.287 0.017 0.389l2.865 2.629c0.112 0.102 0.287 0.095 0.389-0.017l0.32-0.348c-0.048-0.139-0.095-0.248-0.139-0.321-0.617-0.291-0.943-0.984-0.762-1.652zM11.635 2.189l-0.101-0.093 0.779-0.849 0.101 0.093-0.779 0.849zM12.717 1.15c-0.067 0.074-0.182 0.078-0.255 0.011s-0.078-0.182-0.011-0.255c0.067-0.074 0.182-0.078 0.255-0.011s0.078 0.182 0.011 0.255z"></path>
<path d="M16.581 15.371l-3.418-4.537 3.962-1.038c0.493-0.129 0.833-0.579 0.822-1.089-0.001-0.058-0.033-1.447-0.247-2.908-0.358-2.444-1.007-3.666-2.102-3.963-0.587-0.159-1.192 0.188-1.351 0.775-0.149 0.548 0.144 1.112 0.662 1.314 0.342 0.411 0.682 2.149 0.799 3.966l-4.539 1.189c-0.089 0.023-0.172 0.058-0.25 0.101-0.081 0.034-0.16 0.077-0.234 0.132l-4.247 3.2c-0.087 0.066-0.162 0.143-0.223 0.227-0.258 0.284-0.36 0.694-0.232 1.084l2.018 6.14c0.094 0.286 0.301 0.521 0.573 0.65s0.585 0.142 0.866 0.035c2.258-0.86 6.020-1.806 7.317-1.216 0.204 0.093 0.421 0.118 0.628 0.085 0.353-0.056 0.672-0.282 0.831-0.632 0.252-0.554 0.007-1.206-0.547-1.458-2.075-0.944-5.933 0.112-7.928 0.777l-1.124-3.418 0.391-0.134 0.997 3.032c0.956-0.304 2.246-0.664 3.552-0.871 1.849-0.294 3.29-0.213 4.283 0.238 0.455 0.207 0.756 0.612 0.853 1.067l3.98-3.899 7.359 1.242c0.94 0.136 1.814-0.514 1.951-1.454s-0.514-1.814-1.454-1.951l-8.203-1.365c-0.532-0.077-1.069 0.098-1.452 0.473l-4.292 4.204z"></path>
<path d="M22.991 20.132c-0.272-0.555-0.821-0.922-1.438-0.96l-2.935-0.183c-0.009 0.023-0.017 0.046-0.027 0.069-0.211 0.464-0.638 0.789-1.142 0.869-0.293 0.047-0.592 0.006-0.863-0.117-0.244-0.111-0.889-0.26-2.462-0.011-1.004 0.159-2.063 0.429-2.992 0.712l0.503 0.667c0.271 0.511 0.792 0.874 1.412 0.912l7.296 0.454 4.327 7.982c0.34 0.695 1.088 1.059 1.815 0.943 0.165-0.026 0.329-0.077 0.487-0.154 0.853-0.418 1.206-1.449 0.788-2.302l-4.767-8.88z"></path>
<path d="M8.178 10.437c1.502-0.821 2.054-2.704 1.233-4.206s-2.704-2.054-4.206-1.233c-1.502 0.821-2.054 2.704-1.233 4.206s2.704 2.054 4.206 1.233z"></path>
</symbol>
<symbol id="icon-lazy" viewBox="0 0 32 32">
<path d="M31.543 15.764h-8.138c0.040-0.105 0.070-0.216 0.083-0.333 0.083-0.737-0.448-1.401-1.184-1.483l-6.223-0.697c-0.379-0.043-0.759 0.079-1.044 0.333l-2.101 1.877-2.434-5.398 2.216-4.991c0.312-0.703-0.25-1.484-1.017-1.411l-4.023 0.388c0.443 0.332 0.801 0.782 1.025 1.317 0.081 0.192 0.141 0.389 0.182 0.589l1.292-0.125-1.309 2.948-3.589 1.582 0.822 0.631-3.088-1.147 0.562-0.945c-0.312-0.298-0.566-0.661-0.74-1.076-0.162-0.387-0.244-0.794-0.248-1.201l-1.921 3.231c-0.321 0.539-0.075 1.239 0.515 1.458l5.13 1.906-1.090-0.223 2.748 6.565h-1.186l-1.927-6.64-2.101-0.429 2.404 8.282c0.118 0.405 0.489 0.684 0.911 0.684l3.231 0.002-0 3.884-2.254 1.84c-0.28 0.229-0.322 0.641-0.093 0.921s0.641 0.322 0.921 0.093l1.426-1.164v0.657c0 0.362 0.293 0.655 0.655 0.655s0.655-0.293 0.655-0.655v-0.657l1.426 1.164c0.28 0.228 0.693 0.186 0.921-0.093s0.187-0.692-0.093-0.921l-2.254-1.84v-3.886h3.321c0.524 0 0.949-0.425 0.949-0.949s-0.425-0.949-0.949-0.949h-1.555l4.001-3.574 1.13 0.127c-0.145 0.171-0.233 0.392-0.233 0.634 0 0.542 0.44 0.982 0.982 0.982h0.131v9.962c0 0.361 0.293 0.654 0.654 0.654s0.654-0.293 0.654-0.654v-9.962h10.472v9.962c0 0.361 0.293 0.654 0.654 0.654s0.654-0.293 0.654-0.654v-9.962h0.066c0.542 0 0.982-0.44 0.982-0.982s-0.439-0.982-0.982-0.982z"></path>
<path d="M7.393 5.694c-0.497-1.187-1.862-1.746-3.048-1.249s-1.746 1.861-1.249 3.048c0.497 1.187 1.862 1.746 3.048 1.249s1.746-1.861 1.249-3.048z"></path>
<path d="M29.448 13.742h-4.507c-0.325 0-0.589 0.264-0.589 0.589s0.264 0.589 0.589 0.589h4.507c0.325 0 0.589-0.264 0.589-0.589s-0.264-0.589-0.589-0.589z"></path>
<path d="M29.448 11.852h-4.507c-0.325 0-0.589 0.264-0.589 0.589s0.264 0.589 0.589 0.589h4.507c0.325 0 0.589-0.264 0.589-0.589s-0.264-0.589-0.589-0.589z"></path>
<path d="M29.448 9.963h-4.507c-0.325 0-0.589 0.264-0.589 0.589s0.264 0.589 0.589 0.589h4.507c0.325 0 0.589-0.264 0.589-0.589s-0.264-0.589-0.589-0.589z"></path>
<path d="M29.448 8.074h-4.507c-0.325 0-0.589 0.264-0.589 0.589s0.264 0.589 0.589 0.589h4.507c0.325 0 0.589-0.264 0.589-0.589s-0.264-0.589-0.589-0.589z"></path>
</symbol>
<symbol id="icon-half-hearted-1" viewBox="0 0 32 32">
<path d="M15.452 27.98v-1.578h-0.858v1.578l-4.315 1.328c-0.216 0.131-0.453 0.228-0.703 0.286v0.563c-0.322 0.159-0.543 0.489-0.543 0.872 0 0.537 0.435 0.972 0.972 0.972s0.972-0.435 0.972-0.972c0-0.382-0.221-0.712-0.541-0.871l4.159-1.279v1.279c-0.322 0.158-0.543 0.489-0.543 0.871 0 0.537 0.435 0.972 0.972 0.972s0.972-0.435 0.972-0.972c0-0.383-0.222-0.713-0.543-0.871v-1.279l4.159 1.279c-0.32 0.159-0.541 0.489-0.541 0.871 0 0.537 0.435 0.972 0.972 0.972s0.972-0.435 0.972-0.972c0-0.383-0.222-0.713-0.543-0.871v-0.563c-0.25-0.058-0.487-0.155-0.703-0.286l-4.315-1.328z"></path>
<path d="M11.929 9.852c-0 0-0.001-0-0.001-0-1.643 0.035-3.827 3.346-3.97 3.659-0.139 0.305-0.114 0.661 0.068 0.943s0.494 0.453 0.83 0.453h4.804c0.545 0 0.987-0.442 0.987-0.987s-0.442-0.987-0.987-0.987h-3.022c0.281-0.347 0.611-0.674 0.965-0.896l0.412 0.221c-0.142 0.066-0.29 0.16-0.44 0.281h1.875l-0.627-1.168 0.403-0.216 0.766 1.426c0.601 0.149 1.049 0.692 1.049 1.339 0 0.163-0.030 0.318-0.082 0.463l0.234 0.436h2.398c-1.468-0.564-2.512-1.988-2.512-3.652 0-0.469 0.083-0.919 0.235-1.336h-3.174c-0.072-0-0.142 0.007-0.21 0.021z"></path>
<path d="M19.326 27.607c0.17 0.808 0.883 1.364 1.677 1.364 0.117 0 0.235-0.012 0.354-0.037 0.927-0.195 1.521-1.104 1.327-2.031l-0.105-0.5h-3.506l0.253 1.205z"></path>
<path d="M10.973 26.402h-3.506l-0.105 0.5c-0.195 0.927 0.399 1.837 1.327 2.031 0.119 0.025 0.237 0.037 0.354 0.037 0.795 0 1.508-0.555 1.678-1.364l0.253-1.205z"></path>
<path d="M0.332 15.334v0.858h1.258v1.515h0.929v13.776h1.115v-5.596h22.776v5.596h1.115v-13.776h0.929v-1.515h1.258v-0.858h-29.382z"></path>
<path d="M22.734 12.296c-0.196 0.648-0.556 1.225-1.031 1.684l1.092 0.619c0.148 0.084 0.316 0.128 0.486 0.128h6.128l0.83 0.415c0.142 0.071 0.292 0.104 0.441 0.104 0.362-0 0.71-0.2 0.883-0.546 0.244-0.487 0.046-1.080-0.441-1.324l-1.039-0.519c-0.137-0.069-0.288-0.104-0.441-0.104h-6.101l-0.807-0.457z"></path>
<path d="M18.989 14.684c1.943 0 3.517-1.575 3.517-3.517s-1.575-3.517-3.517-3.517c-1.942 0-3.517 1.575-3.517 3.517s1.575 3.517 3.517 3.517zM16.817 12.585l-0.17-0.486c0.078-0.027 1.931-0.659 3.43 0.674l-0.342 0.385c-1.267-1.127-2.851-0.596-2.917-0.573z"></path>
<path d="M10.759 2.554c-0.036 0.096-0.069 0.213-0.087 0.343-0.016 0.005-0.032 0.009-0.048 0.015-0.227 0.087-0.408 0.281-0.496 0.531s-0.068 0.514 0.055 0.724c0.166 0.284 0.467 0.438 0.768 0.562 0.052 0.021 0.106 0.043 0.162 0.064 0.068 0.369 0.167 0.743 0.351 1.084 0.216 0.4 0.531 0.7 0.887 0.859 0.019 0.056 0.043 0.111 0.079 0.163 0.126 0.179 0.323 0.269 0.516 0.338 0.19 0.068 0.441 0.147 0.703 0.149 0.004 0 0.008 0 0.012 0 0.479-0 0.946-0.263 1.193-0.673 0.101-0.168 0.163-0.351 0.223-0.527 0.064-0.19 0.125-0.37 0.23-0.515 0.155 0.033 0.304 0.077 0.446 0.135 0.039 0.016 0.078 0.032 0.117 0.049 0.022 0.010 0.045 0.019 0.067 0.029-0.047 0.103-0.104 0.197-0.174 0.278-0.062 0.072-0.053 0.18 0.019 0.242s0.18 0.053 0.242-0.019c0.099-0.116 0.178-0.25 0.24-0.394 0.021 0.004 0.041 0.010 0.062 0.013 0.422 0.061 0.887-0.171 1.156-0.576 0.204-0.307 0.311-0.702 0.325-1.206 0.010-0.339-0.022-0.628-0.098-0.883-0.067-0.227-0.172-0.435-0.272-0.637-0.051-0.101-0.101-0.202-0.147-0.305-0.098-0.223-0.181-0.472-0.27-0.81-0.079-0.302-0.212-0.808-0.648-0.948-0.107-0.034-0.214-0.038-0.319-0.031-0.141-0.15-0.308-0.28-0.499-0.376-0.465-0.236-1.053-0.293-1.653-0.159-0.409 0.091-0.794 0.26-1.122 0.434-0.197-0.076-0.398-0.106-0.591-0.087-0.445 0.044-0.816 0.366-0.881 0.767-0.022 0.136-0.010 0.277 0.035 0.421-0.055 0.070-0.106 0.139-0.153 0.204-0.163 0.224-0.327 0.469-0.429 0.743zM16.359 4.727c-0.095-0.448-0.291-0.855-0.497-1.246 0.163-0.057 0.322-0.122 0.476-0.198l0.020-0.010c0.056-0.027 0.112-0.055 0.167-0.078l0.104 0.209c0.151 0.304 0.281 0.598 0.199 0.86-0.056 0.179-0.211 0.331-0.469 0.462zM16.206 2.966l-0.020 0.010c-0.157 0.077-0.321 0.143-0.488 0.199l-0.311-0.585c-0.079-0.148-0.201-0.374-0.402-0.51 0.052 0.006 0.103 0.012 0.156 0.017 0.368 0.035 0.715 0.068 0.933 0.291 0.096 0.098 0.164 0.235 0.23 0.367l0.067 0.134c-0.058 0.025-0.113 0.052-0.165 0.078zM14.598 3.908c0.015 0.321-0.040 0.553-0.169 0.708-0.090 0.108-0.226 0.19-0.419 0.251-0.080-0.285-0.204-0.558-0.364-0.807 0.108-0.107 0.222-0.198 0.354-0.252 0.163-0.066 0.35-0.074 0.548-0.083 0.011-0 0.022-0.001 0.034-0.002 0.007 0.061 0.013 0.121 0.016 0.183zM12.687 6.493c-0.010-0.002-0.019-0.006-0.029-0.009 0.008-0.11 0.055-0.223 0.123-0.304 0.149-0.177 0.385-0.275 0.596-0.347 0.13-0.045 0.26-0.081 0.39-0.112-0.010 0.145-0.038 0.267-0.088 0.368-0.16 0.321-0.595 0.499-0.992 0.404zM12.005 4.328c-0.165-0.348-0.189-0.595-0.074-0.734 0.038-0.045 0.096-0.084 0.168-0.111 0.071-0.027 0.147-0.041 0.223-0.041 0.059 0 0.119 0.008 0.176 0.025 0.118 0.035 0.239 0.107 0.381 0.229 0.119 0.101 0.226 0.215 0.324 0.338-0.012 0.014-0.024 0.028-0.036 0.042-0.153 0.175-0.298 0.341-0.476 0.447-0.145 0.086-0.31 0.132-0.5 0.141-0.073-0.104-0.132-0.223-0.186-0.335zM12.865 4.817c0.217-0.128 0.381-0.312 0.539-0.493 0.116 0.195 0.208 0.404 0.271 0.621-0.277 0.048-0.56 0.062-0.841 0.043-0.087-0.006-0.182-0.017-0.271-0.042 0.103-0.030 0.204-0.072 0.302-0.13zM14.723 2.884c-0.076-0.193-0.17-0.376-0.274-0.551 0.092-0.027 0.179-0.037 0.26-0.012 0.162 0.050 0.275 0.24 0.376 0.43l0.277 0.521c-0.163 0.039-0.328 0.069-0.493 0.088-0.036-0.162-0.084-0.321-0.145-0.475zM13.682 1.805c0.086 0.121 0.173 0.243 0.258 0.367-0.341 0.149-0.719 0.221-1.090 0.207-0.212-0.007-0.38-0.042-0.515-0.107-0.103-0.050-0.203-0.125-0.308-0.23 0.029-0.042 0.059-0.083 0.091-0.121 0.207-0.242 0.522-0.384 0.839-0.384 0.032 0 0.064 0.001 0.096 0.004 0.184 0.017 0.364 0.080 0.549 0.152 0.027 0.037 0.054 0.074 0.080 0.111zM11.839 2.355c0.002-0.004 0.005-0.008 0.007-0.012 0.112 0.103 0.223 0.182 0.34 0.239 0.178 0.086 0.392 0.132 0.652 0.141 0.424 0.014 0.853-0.067 1.242-0.237l0.048-0.022c0.107 0.176 0.202 0.357 0.277 0.546 0.048 0.122 0.086 0.247 0.116 0.374-0.214 0.009-0.436 0.020-0.649 0.107-0.168 0.068-0.307 0.172-0.431 0.291-0.103-0.125-0.215-0.242-0.338-0.346-0.113-0.097-0.289-0.233-0.507-0.297-0.202-0.059-0.421-0.051-0.617 0.024-0.129 0.049-0.234 0.121-0.31 0.213-0.315 0.378-0.057 0.921 0.027 1.1 0.024 0.050 0.050 0.102 0.076 0.153-0.111-0.021-0.23-0.053-0.355-0.094-0.005-0.030-0.010-0.060-0.014-0.089l-0.006-0.040c-0.028-0.187-0.057-0.38-0.131-0.567-0.033-0.082-0.072-0.158-0.11-0.232-0.045-0.086-0.086-0.167-0.114-0.249-0.020-0.060-0.030-0.126-0.035-0.193 0.040-0.010 0.080-0.022 0.12-0.038 0.359-0.139 0.538-0.46 0.712-0.771zM14.17 1.904c0.094 0.030 0.185 0.056 0.275 0.079-0.062 0.013-0.124 0.029-0.184 0.051-0.030-0.044-0.061-0.086-0.091-0.13zM10.479 3.994c-0.071-0.121-0.081-0.285-0.027-0.438 0.043-0.122 0.123-0.222 0.22-0.284 0.009 0.063 0.022 0.127 0.043 0.191 0.036 0.109 0.086 0.206 0.135 0.3 0.036 0.069 0.070 0.134 0.096 0.2 0.053 0.133 0.078 0.279 0.102 0.433-0.219-0.092-0.454-0.208-0.568-0.404zM11.766 5.715c-0.133-0.247-0.218-0.521-0.279-0.798 0.174 0.047 0.357 0.081 0.541 0.090 0.075 0.080 0.16 0.15 0.262 0.203 0.171 0.088 0.36 0.111 0.521 0.122 0.313 0.021 0.627 0.005 0.936-0.050 0.004 0.029 0.005 0.059 0.008 0.088-0.163 0.037-0.326 0.083-0.49 0.139-0.256 0.088-0.544 0.21-0.747 0.451-0.088 0.104-0.153 0.239-0.185 0.381-0.224-0.14-0.422-0.354-0.568-0.626zM14.752 6.076c-0.056 0.166-0.11 0.324-0.192 0.46-0.188 0.312-0.538 0.508-0.908 0.507-0.209-0.002-0.415-0.066-0.59-0.129-0.046-0.017-0.091-0.035-0.134-0.055 0.448-0.008 0.871-0.243 1.058-0.619 0.081-0.163 0.121-0.358 0.126-0.589 0.188-0.029 0.373-0.046 0.554-0.046 0.091 0 0.182 0.004 0.271 0.011-0.079 0.147-0.133 0.305-0.185 0.459zM15.179 5.3c-0.345-0.050-0.711-0.047-1.086 0.007-0.004-0.034-0.005-0.069-0.010-0.103 0.208-0.062 0.443-0.169 0.61-0.369 0.187-0.225 0.268-0.533 0.248-0.944-0.003-0.065-0.010-0.129-0.017-0.193 0.203-0.024 0.406-0.061 0.605-0.114 0.213 0.402 0.421 0.817 0.506 1.26 0.001 0.006 0.002 0.012 0.003 0.018-0.019 0.007-0.038 0.014-0.057 0.021-0.283 0.102-0.574 0.206-0.801 0.418zM16.005 5.54c-0.041-0.018-0.083-0.035-0.124-0.052-0.082-0.033-0.166-0.062-0.252-0.088 0.133-0.073 0.285-0.128 0.441-0.184 0.001 0.117-0.010 0.231-0.031 0.339-0.011-0.005-0.023-0.010-0.034-0.014zM17.433 3.979c0.010-0.002 0.021-0.005 0.030-0.008 0.003 0.077 0.003 0.157 0.001 0.242-0.013 0.438-0.1 0.773-0.268 1.026-0.165 0.247-0.482 0.475-0.821 0.426-0.002-0-0.003-0.001-0.005-0.001 0.039-0.182 0.050-0.377 0.037-0.579 0.409-0.183 0.655-0.418 0.748-0.716 0.119-0.383-0.043-0.761-0.22-1.116l-0.028-0.056c0.036 0.030 0.073 0.072 0.112 0.127 0.107 0.154 0.181 0.333 0.214 0.517 0.017 0.093 0.105 0.155 0.2 0.138zM13.976 0.406c0.523-0.116 1.029-0.070 1.423 0.13 0.079 0.040 0.151 0.088 0.22 0.14-0.336 0.067-0.671 0.15-0.998 0.251-0.091 0.028-0.141 0.124-0.114 0.214s0.123 0.141 0.214 0.114c0.384-0.118 0.779-0.213 1.175-0.283 0.005-0.001 0.010-0.002 0.015-0.002 0.146 0.198 0.235 0.426 0.245 0.659 0.004 0.095 0.085 0.172 0.178 0.165 0.095-0.004 0.168-0.083 0.165-0.178-0.008-0.214-0.068-0.425-0.169-0.621 0.192 0.109 0.283 0.392 0.358 0.679 0.063 0.24 0.153 0.554 0.288 0.862 0.048 0.108 0.101 0.214 0.154 0.32 0.025 0.051 0.050 0.101 0.074 0.15-0.062-0.067-0.141-0.132-0.243-0.172-0.085-0.033-0.17-0.042-0.252-0.037l-0.097-0.195c-0.074-0.149-0.158-0.318-0.292-0.454-0.306-0.312-0.752-0.355-1.146-0.393-0.087-0.008-0.174-0.016-0.258-0.028-0.29-0.038-0.602-0.123-0.954-0.26l-0.125-0.049c-0.005-0.002-0.011-0.004-0.016-0.006-0.163-0.222-0.339-0.44-0.559-0.621-0.038-0.031-0.076-0.060-0.115-0.088 0.256-0.123 0.537-0.233 0.829-0.298zM12.793 0.887c0.104 0.055 0.19 0.118 0.251 0.168 0.063 0.051 0.122 0.107 0.178 0.166-0.045-0.008-0.091-0.017-0.137-0.022-0.458-0.043-0.928 0.149-1.227 0.497-0.020 0.023-0.037 0.047-0.056 0.071-0.023-0.034-0.046-0.067-0.065-0.103 0.055-0.063 0.114-0.125 0.176-0.183 0.202-0.189 0.442-0.341 0.672-0.476 0.066-0.039 0.135-0.079 0.208-0.12zM11.646 1.241c0.040-0.242 0.293-0.453 0.576-0.481 0.028-0.003 0.055-0.004 0.082-0.004 0.011 0 0.021 0 0.031 0.001-0.223 0.134-0.454 0.285-0.657 0.476-0.012 0.011-0.024 0.023-0.036 0.035 0.001-0.009 0.002-0.018 0.004-0.026zM11.466 2.013c0.014-0.020 0.029-0.040 0.044-0.060 0.028 0.042 0.059 0.084 0.092 0.126-0.021 0.036-0.041 0.073-0.061 0.109-0.141 0.252-0.276 0.489-0.491 0.596 0.010-0.037 0.019-0.073 0.033-0.11 0.082-0.222 0.213-0.425 0.385-0.661z"></path>
</symbol>
<symbol id="icon-Group" viewBox="0 0 32 32">
<path d="M1.92 5.76c-0.003-0-0.006-0-0.009-0-0.353 0-0.64 0.287-0.64 0.64s0.287 0.64 0.64 0.64c0.003 0 0.006-0 0.010-0h28.16c0.003 0 0.006 0 0.009 0 0.354 0 0.64-0.287 0.64-0.64s-0.287-0.64-0.64-0.64c-0.003 0-0.006 0-0.010 0h-28.16zM1.92 15.36c-0.003-0-0.006-0-0.009-0-0.353 0-0.64 0.287-0.64 0.64s0.287 0.64 0.64 0.64c0.003 0 0.006-0 0.010-0h28.16c0.003 0 0.006 0 0.009 0 0.354 0 0.64-0.287 0.64-0.64s-0.287-0.64-0.64-0.64c-0.003 0-0.006 0-0.010 0h-28.16zM1.92 24.96c-0.003-0-0.006-0-0.009-0-0.353 0-0.64 0.287-0.64 0.64s0.287 0.64 0.64 0.64c0.003 0 0.006-0 0.010-0h28.16c0.003 0 0.006 0 0.009 0 0.354 0 0.64-0.287 0.64-0.64s-0.287-0.64-0.64-0.64c-0.003 0-0.006 0-0.010 0h-28.16z"></path>
</symbol>
<symbol id="icon-Brain" viewBox="0 0 24 24">
<path d="M11.732 26.504c-0.472 0-0.885-0.153-1.21-0.447-0.427-0.386-0.604-0.95-0.541-1.719-0.175-0.011-0.35 0-0.534 0.009-0.382 0.023-0.777 0.047-1.201-0.139-1.565-0.681-1.538-2.067-1.332-3.123-1.157-0.568-2.023-1.629-2.279-2.808-0.285-1.303 0.058-2.532 0.898-3.282-0.804-0.737-1.125-1.943-0.766-2.981 0.375-1.081 1.338-1.865 2.358-1.957-0.159-0.971 0.137-2.145 1.062-2.721 0.539-0.335 1.049-0.44 1.657-0.472-0.047-0.584 0.159-0.953 0.234-1.083 0.29-0.519 0.844-0.91 1.565-1.108 0.921-0.252 1.994-0.155 2.675 0.24l0.045 0.025c0.921 0.535 1.161 0.845 1.161 4.956 0 2.062-0.031 10.676-0.034 11.042-0.007 1.4-0.081 2.662-0.934 3.954-0.445 0.674-1.484 1.46-2.533 1.593-0.099 0.014-0.198 0.018-0.292 0.018l0.002 0.002zM9.814 23.882c0.146 0 0.299 0.009 0.454 0.038l0.211 0.038-0.029 0.211c-0.099 0.737 0.018 1.229 0.373 1.55 0.296 0.27 0.683 0.375 1.145 0.317 0.883-0.11 1.819-0.795 2.214-1.395 0.786-1.191 0.853-2.334 0.86-3.705 0-0.368 0.034-8.982 0.034-11.044 0-4.021-0.236-4.158-0.939-4.567l-0.045-0.027c-0.582-0.339-1.518-0.418-2.329-0.195-0.604 0.166-1.062 0.479-1.287 0.883-0.076 0.137-0.265 0.474-0.155 1.047l0.052 0.261-0.267 0.007c-0.667 0.013-1.157 0.088-1.682 0.413-0.829 0.514-1.033 1.644-0.806 2.496l0.079 0.294-0.303-0.011c-0.927-0.027-1.855 0.665-2.201 1.662-0.323 0.932 0.034 2.074 0.829 2.655l0.249 0.182-0.252 0.182c-0.853 0.616-1.217 1.766-0.948 3.001 0.24 1.096 1.078 2.083 2.19 2.57l0.168 0.074-0.040 0.18c-0.33 1.498-0.022 2.332 1.035 2.79 0.326 0.142 0.651 0.121 0.995 0.101 0.128-0.007 0.26-0.016 0.395-0.016v0.007z"></path>
<path d="M15.235 22.327c-0.123 0-0.225-0.099-0.225-0.222-0.007-1.114-0.454-2.211-1.228-3.008s-1.857-1.281-2.969-1.321c-0.128-0.005-0.258-0.005-0.388-0.002-0.296 0-0.6 0.004-0.903-0.056-0.557-0.112-0.979-0.436-1.132-0.865-0.040-0.117 0.020-0.245 0.137-0.285 0.117-0.043 0.245 0.020 0.285 0.137 0.114 0.328 0.487 0.512 0.795 0.573 0.258 0.052 0.528 0.049 0.811 0.047 0.135 0 0.272 0 0.406 0.002 1.226 0.045 2.421 0.575 3.274 1.456 0.856 0.881 1.35 2.091 1.356 3.318 0 0.124-0.099 0.225-0.222 0.227h0.002z"></path>
<path d="M8.602 22.523c-0.101 0-0.193-0.067-0.218-0.171-0.029-0.121 0.043-0.243 0.164-0.272 0.424-0.108 0.833-0.449 1.148-0.962 0.182-0.294 0.319-0.611 0.465-0.946 0.085-0.195 0.171-0.389 0.263-0.58 0.335-0.681 0.707-1.123 1.17-1.388 0.548-0.317 1.55-0.308 2.066 0.177 0.090 0.085 0.094 0.227 0.011 0.317-0.085 0.090-0.227 0.097-0.317 0.011-0.328-0.308-1.103-0.364-1.536-0.115-0.382 0.22-0.696 0.6-0.99 1.197-0.090 0.184-0.173 0.373-0.254 0.559-0.146 0.332-0.296 0.678-0.494 1-0.265 0.434-0.728 0.988-1.422 1.164-0.018 0.004-0.036 0.007-0.054 0.007h-0.002z"></path>
<path d="M15.258 21.211c0 0-0.014 0-0.023 0-0.123-0.011-0.213-0.121-0.202-0.245 0.238-2.464-1.008-5.010-3.099-6.335-0.191-0.121-0.397-0.238-0.595-0.35-0.656-0.373-1.336-0.762-1.758-1.42-0.067-0.103-0.038-0.243 0.067-0.31 0.103-0.067 0.242-0.036 0.31 0.067 0.364 0.566 0.966 0.908 1.603 1.272 0.204 0.115 0.413 0.236 0.613 0.362 2.23 1.413 3.559 4.129 3.306 6.758-0.011 0.117-0.11 0.202-0.222 0.202z"></path>
<path d="M14.541 17.466c-0.079 0-0.155-0.040-0.195-0.115-0.267-0.478-0.665-1.161-1.031-1.573-0.272-0.306-0.719-0.696-1.291-0.809-0.543-0.108-1.134 0.047-1.655 0.187l-1.352 0.357c-0.119 0.031-0.242-0.040-0.274-0.16s0.040-0.243 0.159-0.274l1.352-0.357c0.568-0.15 1.21-0.321 1.855-0.191 0.696 0.139 1.222 0.593 1.541 0.953 0.393 0.443 0.808 1.155 1.087 1.651 0.061 0.108 0.023 0.245-0.085 0.306-0.034 0.020-0.072 0.029-0.11 0.029v-0.005z"></path>
<path d="M15.278 16.399c0 0-0.014 0-0.023 0-0.123-0.011-0.213-0.121-0.202-0.245 0.097-1.015-0.132-2.060-0.647-2.941-0.263-0.452-0.604-0.869-0.936-1.276-0.371-0.454-0.752-0.923-1.044-1.454-0.631-1.155-0.777-2.539-0.404-3.799 0.036-0.119 0.159-0.186 0.278-0.151s0.186 0.16 0.15 0.279c-0.339 1.148-0.207 2.406 0.368 3.457 0.27 0.494 0.624 0.926 0.997 1.386 0.341 0.42 0.696 0.851 0.977 1.334 0.559 0.962 0.811 2.101 0.705 3.208-0.011 0.117-0.108 0.204-0.222 0.204l0.002-0.005z"></path>
<path d="M14.921 13.977c-0.097 0-0.186-0.063-0.216-0.162-0.272-0.914-1.525-1.71-2.526-1.88-0.157-0.027-0.314-0.043-0.469-0.061-0.375-0.040-0.764-0.081-1.143-0.256-0.806-0.368-1.365-0.991-1.491-1.662-0.023-0.121 0.056-0.24 0.18-0.263 0.121-0.023 0.24 0.056 0.263 0.18 0.099 0.53 0.561 1.029 1.237 1.337 0.314 0.144 0.649 0.18 1.006 0.218 0.162 0.018 0.328 0.036 0.496 0.063 1.154 0.195 2.549 1.072 2.881 2.195 0.036 0.119-0.034 0.245-0.15 0.279-0.020 0.007-0.043 0.009-0.063 0.009l-0.004 0.004z"></path>
<path d="M15.278 27.465c-0.124 0-0.225-0.101-0.225-0.225v-17.631c0-0.124 0.101-0.225 0.225-0.225s0.225 0.101 0.225 0.225v17.633c0 0.124-0.101 0.225-0.225 0.225v-0.002z"></path>
<path d="M10.432 20.083c0 0-0.011-0.020-0.018-0.031-0.775-0.025-1.549 0.395-1.951 1.058s-0.415 1.543-0.036 2.22c0.020-0.011 0.045-0.023 0.067-0.036 0.49-1.132 1.024-2.341 1.938-3.213v0.002z"></path>
<path d="M8.494 23.296c0.204-0.11 0.483-0.276 0.669-0.371 0.326-0.166 0.658-0.335 0.923-0.589 0.62-0.591 0.788-1.525 0.346-2.253-0.914 0.869-1.448 2.080-1.938 3.213z"></path>
<path d="M10.313 17.661c0 0 0.018-0.016 0.025-0.025-0.18-0.755-0.79-1.391-1.536-1.602-0.746-0.213-1.599 0.007-2.149 0.553 0.016 0.018 0.034 0.036 0.052 0.056 1.219 0.173 2.529 0.368 3.609 1.020v-0.002z"></path>
<path d="M6.704 16.641c0.159 0.168 0.393 0.391 0.534 0.548 0.247 0.272 0.499 0.546 0.811 0.735 0.732 0.44 1.68 0.357 2.264-0.263-1.080-0.652-2.389-0.847-3.609-1.020z"></path>
<path d="M10.955 13.669c0 0 0.020-0.011 0.029-0.020-0.016-0.775-0.478-1.525-1.161-1.892-0.685-0.366-1.563-0.332-2.216 0.085 0.011 0.020 0.025 0.043 0.038 0.065 1.157 0.427 2.392 0.896 3.31 1.761z"></path>
<path d="M7.645 11.91c0.121 0.2 0.301 0.467 0.406 0.649 0.184 0.317 0.371 0.638 0.638 0.89 0.622 0.586 1.565 0.705 2.266 0.222-0.918-0.865-2.156-1.334-3.31-1.761z"></path>
<path d="M12.031 9.322c0 0 0.018 0.013 0.029 0.020 0.712-0.306 1.237-1.013 1.32-1.784s-0.276-1.575-0.907-2.026c-0.013 0.018-0.029 0.038-0.045 0.061 0.036 1.231 0.063 2.554-0.395 3.729h-0.002z"></path>
<path d="M12.428 5.593c-0.139 0.186-0.319 0.454-0.449 0.62-0.225 0.288-0.454 0.582-0.586 0.923-0.31 0.798-0.070 1.716 0.64 2.186 0.46-1.175 0.431-2.498 0.395-3.729z"></path>
<path d="M9.689 10.944c0 0 0.016 0 0.022 0.002 0.314-0.409 0.386-0.991 0.184-1.465s-0.674-0.822-1.188-0.878c-0.002 0.016-0.004 0.034-0.007 0.049 0.422 0.703 0.869 1.46 0.986 2.294l0.002-0.002z"></path>
<path d="M8.703 8.65c-0.020 0.153-0.038 0.368-0.058 0.505-0.036 0.24-0.074 0.485-0.038 0.728 0.079 0.564 0.519 1.018 1.085 1.060-0.117-0.831-0.564-1.591-0.986-2.294h-0.002z"></path>
<path d="M9.754 15.206c0 0 0.009-0.011 0.014-0.018-0.182-0.483-0.638-0.851-1.148-0.93s-1.056 0.139-1.372 0.546c0.011 0.011 0.025 0.020 0.038 0.031 0.82 0.011 1.7 0.031 2.468 0.371z"></path>
<path d="M7.286 14.837c0.119 0.099 0.292 0.227 0.4 0.317 0.186 0.157 0.375 0.319 0.597 0.418 0.521 0.229 1.139 0.094 1.471-0.362-0.768-0.339-1.648-0.359-2.468-0.371v-0.002z"></path>
<path d="M20.268 26.504c-0.094 0-0.193-0.007-0.292-0.018-1.049-0.133-2.088-0.919-2.533-1.593-0.853-1.292-0.927-2.554-0.934-3.949 0-0.368-0.034-8.982-0.034-11.044 0-4.111 0.24-4.421 1.161-4.956l0.045-0.025c0.678-0.395 1.754-0.494 2.675-0.24 0.721 0.198 1.276 0.586 1.561 1.099 0.079 0.139 0.285 0.508 0.238 1.092 0.611 0.031 1.118 0.137 1.657 0.472 0.925 0.575 1.222 1.75 1.062 2.721 1.022 0.092 1.985 0.876 2.358 1.957 0.359 1.038 0.038 2.247-0.766 2.981 0.84 0.75 1.183 1.979 0.898 3.282-0.258 1.179-1.123 2.24-2.279 2.808 0.209 1.056 0.236 2.442-1.332 3.123-0.424 0.184-0.82 0.162-1.201 0.139-0.182-0.011-0.359-0.023-0.534-0.009 0.063 0.768-0.115 1.332-0.541 1.719-0.326 0.294-0.741 0.447-1.21 0.447l0.002-0.005zM16.958 20.939c0.007 1.37 0.074 2.514 0.86 3.705 0.395 0.598 1.332 1.283 2.214 1.395 0.463 0.058 0.849-0.047 1.145-0.317 0.355-0.321 0.472-0.813 0.373-1.55l-0.029-0.211 0.211-0.038c0.301-0.056 0.579-0.038 0.849-0.023 0.344 0.020 0.669 0.040 0.995-0.101 1.055-0.458 1.365-1.294 1.033-2.79l-0.040-0.18 0.168-0.074c1.109-0.488 1.949-1.474 2.19-2.57 0.269-1.236-0.094-2.386-0.948-3.001l-0.252-0.182 0.249-0.182c0.795-0.582 1.152-1.723 0.829-2.655-0.337-0.975-1.228-1.665-2.138-1.665-0.022 0-0.043 0-0.065 0l-0.303 0.011 0.079-0.294c0.227-0.851 0.023-1.981-0.806-2.496-0.528-0.328-1.015-0.4-1.682-0.413l-0.267-0.007 0.052-0.261c0.11-0.573-0.079-0.91-0.148-1.038-0.231-0.413-0.687-0.728-1.291-0.892-0.813-0.222-1.747-0.144-2.329 0.195l-0.045 0.025c-0.701 0.409-0.939 0.546-0.939 4.567 0 2.062 0.031 10.676 0.034 11.040l-0.225 0.004h0.225l0.002-0.002z"></path>
<path d="M16.765 22.327c-0.124 0-0.225-0.101-0.222-0.227 0.007-1.229 0.501-2.438 1.356-3.318s2.048-1.411 3.274-1.456c0.135-0.004 0.272-0.004 0.407-0.002 0.283 0 0.552 0.005 0.811-0.047 0.31-0.063 0.68-0.245 0.795-0.573 0.040-0.117 0.168-0.18 0.285-0.137 0.117 0.040 0.177 0.168 0.137 0.285-0.151 0.431-0.573 0.753-1.132 0.865-0.303 0.061-0.609 0.058-0.903 0.056-0.13 0-0.258 0-0.389 0.002-1.112 0.040-2.194 0.521-2.969 1.321s-1.224 1.896-1.228 3.008c0 0.124-0.101 0.222-0.225 0.222h0.002z"></path>
<path d="M23.398 22.523c-0.018 0-0.036 0-0.054-0.007-0.692-0.173-1.154-0.728-1.422-1.164-0.198-0.321-0.348-0.667-0.494-1.002-0.083-0.187-0.164-0.375-0.254-0.559-0.294-0.598-0.608-0.98-0.99-1.197-0.433-0.249-1.208-0.191-1.536 0.115-0.090 0.085-0.233 0.081-0.317-0.011-0.085-0.090-0.081-0.234 0.011-0.317 0.519-0.485 1.518-0.492 2.066-0.178 0.463 0.265 0.833 0.708 1.17 1.388 0.094 0.189 0.177 0.384 0.263 0.577 0.146 0.335 0.285 0.649 0.465 0.946 0.314 0.514 0.721 0.856 1.148 0.962 0.121 0.029 0.193 0.153 0.164 0.272-0.025 0.101-0.117 0.171-0.218 0.171l-0.002 0.005z"></path>
<path d="M16.742 21.211c-0.114 0-0.211-0.088-0.222-0.202-0.254-2.628 1.076-5.345 3.306-6.758 0.2-0.126 0.411-0.247 0.613-0.362 0.638-0.364 1.24-0.705 1.603-1.272 0.067-0.103 0.207-0.135 0.31-0.067s0.135 0.207 0.067 0.31c-0.424 0.658-1.103 1.045-1.761 1.42-0.198 0.112-0.404 0.229-0.595 0.35-2.091 1.325-3.337 3.871-3.099 6.335 0.011 0.124-0.079 0.234-0.202 0.245-0.007 0-0.013 0-0.022 0h0.002z"></path>
<path d="M17.456 17.466c-0.038 0-0.074-0.009-0.11-0.029-0.108-0.061-0.146-0.198-0.085-0.306 0.279-0.497 0.694-1.209 1.087-1.651 0.319-0.357 0.844-0.813 1.541-0.953 0.645-0.128 1.289 0.043 1.855 0.191l1.352 0.357c0.119 0.031 0.191 0.155 0.159 0.274s-0.155 0.191-0.274 0.159l-1.352-0.357c-0.521-0.137-1.112-0.292-1.655-0.186-0.575 0.115-1.020 0.503-1.291 0.809-0.364 0.411-0.764 1.094-1.031 1.573-0.040 0.074-0.117 0.115-0.195 0.115v0.004z"></path>
<path d="M16.722 16.399c-0.115 0-0.213-0.088-0.222-0.204-0.106-1.107 0.146-2.247 0.705-3.208 0.281-0.481 0.633-0.914 0.977-1.334 0.375-0.458 0.728-0.892 0.997-1.384 0.573-1.049 0.707-2.309 0.368-3.457-0.036-0.119 0.034-0.245 0.15-0.279 0.119-0.036 0.245 0.034 0.279 0.151 0.373 1.26 0.224 2.646-0.404 3.799-0.29 0.53-0.674 1-1.042 1.454-0.33 0.407-0.674 0.824-0.936 1.276-0.512 0.881-0.743 1.925-0.647 2.941 0.011 0.124-0.079 0.234-0.202 0.245-0.007 0-0.013 0-0.022 0v0.002z"></path>
<path d="M17.079 13.977c-0.020 0-0.043-0.002-0.063-0.009-0.119-0.036-0.186-0.159-0.15-0.279 0.332-1.123 1.727-1.999 2.881-2.195 0.168-0.029 0.335-0.047 0.496-0.063 0.355-0.038 0.692-0.074 1.006-0.218 0.674-0.308 1.136-0.807 1.237-1.337 0.023-0.121 0.142-0.2 0.263-0.18 0.121 0.023 0.202 0.139 0.18 0.263-0.128 0.674-0.685 1.294-1.491 1.662-0.38 0.173-0.768 0.216-1.143 0.256-0.155 0.018-0.312 0.034-0.469 0.061-1.002 0.171-2.255 0.966-2.526 1.88-0.029 0.097-0.119 0.162-0.216 0.162l-0.005-0.005z"></path>
<path d="M16.722 27.465c-0.124 0-0.225-0.101-0.225-0.225v-17.631c0-0.124 0.101-0.225 0.225-0.225s0.225 0.101 0.225 0.225v17.633c0 0.124-0.101 0.225-0.225 0.225v-0.002z"></path>
<path d="M21.568 20.083c0 0 0.011-0.020 0.018-0.031 0.775-0.025 1.55 0.395 1.951 1.058s0.416 1.543 0.036 2.22c-0.020-0.011-0.045-0.023-0.067-0.036-0.49-1.132-1.024-2.341-1.938-3.213v0.002z"></path>
<path d="M23.504 23.296c-0.204-0.11-0.483-0.276-0.669-0.371-0.326-0.166-0.658-0.335-0.923-0.589-0.62-0.591-0.788-1.525-0.346-2.253 0.914 0.869 1.448 2.080 1.938 3.213z"></path>
<path d="M21.687 17.661c0 0-0.016-0.016-0.025-0.025 0.18-0.755 0.79-1.391 1.536-1.602 0.746-0.213 1.599 0.007 2.149 0.553-0.016 0.018-0.034 0.036-0.052 0.056-1.219 0.173-2.529 0.368-3.609 1.020v-0.002z"></path>
<path d="M25.296 16.641c-0.159 0.168-0.393 0.391-0.535 0.548-0.247 0.272-0.498 0.546-0.811 0.735-0.732 0.44-1.68 0.357-2.264-0.263 1.080-0.652 2.389-0.847 3.609-1.020z"></path>
<path d="M21.045 13.669c0 0-0.020-0.011-0.029-0.020 0.016-0.775 0.478-1.525 1.161-1.892 0.685-0.366 1.563-0.332 2.216 0.085-0.011 0.020-0.025 0.043-0.038 0.065-1.157 0.427-2.392 0.896-3.31 1.761z"></path>
<path d="M24.355 11.91c-0.121 0.2-0.301 0.467-0.407 0.649-0.184 0.317-0.37 0.638-0.638 0.89-0.622 0.586-1.565 0.705-2.266 0.222 0.919-0.865 2.156-1.334 3.31-1.761z"></path>
<path d="M19.967 9.322c0 0-0.018 0.013-0.029 0.020-0.712-0.306-1.237-1.013-1.32-1.784s0.276-1.575 0.907-2.026c0.014 0.018 0.029 0.038 0.045 0.061-0.036 1.231-0.063 2.554 0.395 3.729h0.002z"></path>
<path d="M19.572 5.593c0.139 0.186 0.319 0.454 0.449 0.62 0.224 0.288 0.454 0.582 0.586 0.923 0.31 0.798 0.070 1.716-0.64 2.186-0.46-1.175-0.431-2.498-0.395-3.729z"></path>
<path d="M22.311 10.944c0 0-0.016 0-0.023 0.002-0.314-0.409-0.386-0.991-0.184-1.465s0.674-0.822 1.188-0.878c0.002 0.016 0.005 0.034 0.007 0.049-0.422 0.703-0.869 1.46-0.986 2.294l-0.002-0.002z"></path>
<path d="M23.297 8.65c0.020 0.153 0.038 0.368 0.058 0.505 0.036 0.24 0.074 0.485 0.038 0.728-0.079 0.564-0.519 1.018-1.085 1.060 0.117-0.831 0.564-1.591 0.986-2.294h0.002z"></path>
<path d="M22.246 15.206c0 0-0.009-0.011-0.014-0.018 0.182-0.483 0.638-0.851 1.148-0.93s1.055 0.139 1.372 0.546c-0.011 0.011-0.025 0.020-0.038 0.031-0.82 0.011-1.7 0.031-2.468 0.371z"></path>
<path d="M24.712 14.837c-0.119 0.099-0.292 0.227-0.4 0.317-0.186 0.157-0.375 0.319-0.597 0.418-0.521 0.229-1.139 0.094-1.471-0.362 0.768-0.339 1.648-0.359 2.468-0.371v-0.002z"></path>
</symbol>
<symbol id="icon-Head" viewBox="0 0 28 32">
<path fill="#b9917f" style="fill: var(--color1, #b9917f)" d="M22.345 18.629c0.016-0.005 0.030-0.008 0.046-0.014 0.29-0.988 0.008-2.121-0.709-2.86s-1.845-1.047-2.841-0.782c0.005 0.030 0.014 0.065 0.022 0.097 1.291 1.004 2.668 2.094 3.482 3.558z"></path>
<path fill="#b9917f" style="fill: var(--color1, #b9917f)" d="M18.863 15.071c0.073 0.3 0.195 0.712 0.254 0.982 0.106 0.473 0.214 0.958 0.449 1.38 0.552 0.99 1.697 1.521 2.779 1.193-0.814-1.464-2.192-2.551-3.482-3.558v0.003z"></path>
<path fill="#b9917f" style="fill: var(--color1, #b9917f)" d="M20.827 42.607c-0.114 0-0.216-0.070-0.257-0.181-0.314-0.912-0.557-2.073-0.72-3.447-0.127-1.080 0.322-2.064 1.201-2.638 0.409-0.265 0.909-0.455 1.485-0.557 0.135-0.024 0.268-0.041 0.4-0.057 0.438-0.051 0.787-0.095 1.050-0.419 0.3-0.371 0.225-0.741 0.13-1.212-0.046-0.219-0.092-0.444-0.1-0.685-0.011-0.227 0.195-0.392 0.436-0.582 0.043-0.035 0.106-0.084 0.154-0.127-0.030-0.032-0.062-0.068-0.087-0.092-0.176-0.187-0.344-0.363-0.284-0.576 0.054-0.189 0.206-0.308 0.341-0.411 0.035-0.027 0.087-0.068 0.122-0.097-0.046-0.054-0.119-0.13-0.168-0.179-0.208-0.214-0.346-0.357-0.346-0.533 0-0.265 0.176-0.901 0.211-1.026l0.022-0.078 0.062-0.054c0.287-0.244 0.636-0.354 0.974-0.46 0.341-0.108 0.666-0.211 0.852-0.441 0.011-0.333-0.893-1.642-1.437-2.43-0.828-1.196-1.293-1.891-1.283-2.262 0.011-0.29 0.022-0.649 0.089-1.145 0.119-0.858-0.208-2.178-0.714-2.882l-2.048-2.857c-0.087-0.122-0.060-0.29 0.062-0.379 0.122-0.087 0.29-0.060 0.379 0.062l2.048 2.857c0.584 0.814 0.947 2.281 0.812 3.271-0.065 0.468-0.076 0.812-0.087 1.090 0.011 0.235 0.69 1.218 1.185 1.935 1.269 1.837 1.756 2.625 1.442 3.041-0.29 0.384-0.72 0.52-1.139 0.652-0.271 0.087-0.528 0.168-0.725 0.308-0.068 0.249-0.149 0.584-0.165 0.744 0.043 0.054 0.133 0.146 0.192 0.206 0.225 0.233 0.344 0.36 0.349 0.525 0.011 0.276-0.203 0.441-0.36 0.56-0.027 0.022-0.065 0.051-0.097 0.079 0.032 0.038 0.073 0.078 0.103 0.108 0.179 0.189 0.333 0.352 0.281 0.56-0.041 0.168-0.2 0.295-0.403 0.457-0.070 0.057-0.179 0.143-0.23 0.198 0.014 0.179 0.049 0.354 0.087 0.541 0.105 0.511 0.225 1.093-0.238 1.661-0.4 0.495-0.933 0.56-1.404 0.617-0.122 0.014-0.246 0.030-0.371 0.051-0.506 0.092-0.936 0.252-1.285 0.479-0.714 0.465-1.063 1.236-0.961 2.119 0.157 1.337 0.392 2.459 0.693 3.336 0.049 0.141-0.027 0.295-0.168 0.344-0.030 0.011-0.060 0.016-0.089 0.016l0.003-0.011z"></path>
<path fill="#b9917f" style="fill: var(--color1, #b9917f)" d="M15.302 43.524c-9.486 0-17.203-7.717-17.203-17.203s7.717-17.203 17.203-17.203c9.486 0 17.203 7.717 17.203 17.203s-7.717 17.203-17.203 17.203zM15.302 9.662c-9.186 0-16.662 7.473-16.662 16.662s7.473 16.662 16.662 16.662c9.189 0 16.662-7.473 16.662-16.662s-7.473-16.662-16.662-16.662z"></path>
<path fill="#b9917f" style="fill: var(--color1, #b9917f)" d="M-5.277 21.194c-0.135 0-0.252-0.103-0.268-0.241-0.016-0.149 0.089-0.281 0.238-0.3 2.5-0.284 4.83-1.702 6.231-3.793 0.084-0.124 0.252-0.157 0.376-0.073s0.157 0.252 0.073 0.376c-1.488 2.221-3.964 3.726-6.621 4.029-0.011 0-0.022 0-0.030 0v0.003z"></path>
<path fill="#b9917f" style="fill: var(--color1, #b9917f)" d="M20.354 3.517c-0.016-0.003-0.030-0.008-0.046-0.014-0.76 0.693-1.107 1.81-0.877 2.814 0.233 1.004 1.034 1.853 2.021 2.143 0.011-0.030 0.022-0.062 0.030-0.095-0.582-1.529-1.196-3.174-1.134-4.846l0.005-0.003z"></path>
<path fill="#b9917f" style="fill: var(--color1, #b9917f)" d="M21.485 8.363c0.095-0.295 0.203-0.709 0.292-0.971 0.157-0.46 0.314-0.928 0.333-1.415 0.041-1.134-0.663-2.181-1.756-2.462-0.062 1.675 0.549 3.32 1.134 4.846l-0.003 0.003z"></path>
<path fill="#b9917f" style="fill: var(--color1, #b9917f)" d="M24.561 12.338c-0.051 0-0.103-0.014-0.152-0.046-2.221-1.488-3.726-3.964-4.029-6.621-0.016-0.149 0.089-0.281 0.238-0.3 0.154-0.016 0.281 0.089 0.3 0.238 0.284 2.5 1.702 4.83 3.793 6.231 0.124 0.084 0.157 0.252 0.073 0.376-0.051 0.078-0.138 0.119-0.225 0.119v0.003z"></path>
<path fill="#b9917f" style="fill: var(--color1, #b9917f)" d="M15.302 32.082c-3.177 0-5.758-2.584-5.758-5.758s2.584-5.758 5.758-5.758c3.174 0 5.758 2.584 5.758 5.758s-2.584 5.758-5.758 5.758zM15.302 21.104c-2.876 0-5.217 2.34-5.217 5.217s2.34 5.217 5.217 5.217c2.876 0 5.217-2.34 5.217-5.217s-2.34-5.217-5.217-5.217z"></path>
<path fill="#b9917f" style="fill: var(--color1, #b9917f)" d="M14.093 34.406c-0.122 0-0.23-0.081-0.262-0.203-0.038-0.143 0.049-0.292 0.195-0.33 2.438-0.628 4.548-2.354 5.65-4.616 0.065-0.135 0.227-0.192 0.363-0.124 0.135 0.065 0.189 0.227 0.124 0.363-1.169 2.405-3.412 4.24-6.001 4.905-0.022 0.005-0.046 0.008-0.068 0.008v-0.003z"></path>
<path fill="#b9917f" style="fill: var(--color1, #b9917f)" d="M18.563 17.974c0-0.016 0.005-0.030 0.005-0.046-0.793-0.657-1.945-0.847-2.906-0.479s-1.691 1.28-1.843 2.3c0.030 0.005 0.065 0.011 0.1 0.016 1.434-0.787 2.979-1.623 4.643-1.791z"></path>
<path fill="#b9917f" style="fill: var(--color1, #b9917f)" d="M13.92 19.765c0.306 0.051 0.731 0.103 1.004 0.154 0.476 0.092 0.963 0.184 1.445 0.133 1.128-0.116 2.067-0.958 2.194-2.081-1.667 0.171-3.212 1.004-4.643 1.791v0.003z"></path>
<path fill="#b9917f" style="fill: var(--color1, #b9917f)" d="M10.676 23.596c-0.041 0-0.078-0.008-0.119-0.027-0.135-0.065-0.189-0.227-0.124-0.363 1.169-2.405 3.412-4.24 5.999-4.905 0.143-0.038 0.292 0.049 0.33 0.195 0.038 0.143-0.049 0.292-0.195 0.33-2.438 0.628-4.548 2.354-5.647 4.616-0.046 0.097-0.143 0.152-0.243 0.152v0.003z"></path>
<path fill="#b9917f" style="fill: var(--color1, #b9917f)" d="M15.302 31.072c-2.619 0-4.749-2.132-4.749-4.751s2.132-4.748 4.749-4.748c2.616 0 4.751 2.132 4.751 4.748s-2.132 4.751-4.751 4.751zM15.302 21.843c-2.47 0-4.478 2.010-4.478 4.478s2.010 4.481 4.478 4.481c2.468 0 4.481-2.010 4.481-4.481s-2.010-4.478-4.481-4.478z"></path>
</symbol>
</defs>
</svg>
