<svg aria-hidden="true" style="position: absolute; width: 0; height: 0; overflow: hidden;" version="1.1" xmlns="http://www.w3.org/2000/svg" xmlns:xlink="http://www.w3.org/1999/xlink">
<defs>
<symbol id="icon-Groupp" viewBox="0 0 23 32">
<path stroke-linejoin="miter" stroke-linecap="round" stroke-miterlimit="4" stroke-width="1.7297" d="M22.486 0.979v30.043"></path>
<path stroke-linejoin="miter" stroke-linecap="round" stroke-miterlimit="4" stroke-width="1.7297" d="M11.789 0.979v30.043"></path>
<path stroke-linejoin="miter" stroke-linecap="round" stroke-miterlimit="4" stroke-width="1.7297" d="M0.865 0.979v30.043"></path>
</symbol>
<symbol id="icon-Arrow" viewBox="0 0 51 32">
<path d="M4.137 27.97c-1.25-1.25-1.25-3.276 0-4.525l19.307-19.307c1.25-1.25 3.276-1.25 4.526 0s1.25 3.276 0 4.525l-19.307 19.307c-1.25 1.25-3.276 1.25-4.525 0z"></path>
<path d="M47.322 27.97c1.25-1.25 1.25-3.276 0-4.525l-19.307-19.307c-1.25-1.25-3.276-1.25-4.525 0s-1.25 3.276 0 4.525l19.307 19.307c1.25 1.25 3.276 1.25 4.525 0z"></path>
</symbol>
<symbol id="icon-family" viewBox="0 0 32 32">
<path d="M7.691 0c-2.068 0-3.75 1.682-3.75 3.75s1.682 3.813 3.75 3.813c2.068 0 3.75-1.745 3.75-3.813s-1.682-3.75-3.75-3.75z"></path>
<path d="M28.318 3.75c0-2.068-1.682-3.75-3.75-3.75s-3.75 1.682-3.75 3.75 1.682 3.813 3.75 3.813c2.068 0 3.75-1.745 3.75-3.813z"></path>
<path d="M11.078 28.446c2.182 1.831 2.72 2.347 3.304 2.844 0.557 0.473 1.252 0.71 1.947 0.71 0.701 0 1.403-0.242 1.959-0.723 1.017-0.881 2.119-1.896 3.111-2.765-0.532-0.179-1.033-0.464-1.451-0.883-1.113-1.112-1.423-2.796-0.719-4.271-1.912-1.012-4.284-1.009-6.196 0.004 0.7 1.473 0.392 3.155-0.722 4.268-0.361 0.361-0.781 0.633-1.232 0.816z"></path>
<path d="M16.129 18.815c1.036 0 1.875-0.84 1.875-1.875s-0.84-1.875-1.875-1.875c-1.036 0-1.875 0.84-1.875 1.875s0.84 1.875 1.875 1.875z"></path>
<path d="M16.129 12.017c-1.284-2.313-3.5-4.315-6.642-4.315-4.322 0-7.58 3.503-7.58 8.148 0 4.103 2.791 7.112 7.201 10.918 0.649 0.195 1.377 0.035 1.878-0.465 0.768-0.766 0.706-2.014-0.076-2.725-4.025-3.657-5.252-5.359-5.252-7.265h1.875c0 1.181 1.152 2.675 4.314 5.576 2.608-1.53 5.96-1.527 8.567 0 3.161-2.901 4.314-4.395 4.314-5.576h1.875c0 1.906-1.227 3.608-5.252 7.265-0.778 0.707-0.848 1.955-0.077 2.724 0.632 0.63 1.616 0.702 2.357 0.22 4.69-4.273 6.722-6.923 6.722-10.672 0-4.645-3.259-8.148-7.58-8.148-3.144 0-5.358 2.003-6.642 4.315zM19.88 16.939c0 2.068-1.682 3.75-3.75 3.75s-3.75-1.682-3.75-3.75c0-2.068 1.682-3.75 3.75-3.75s3.75 1.682 3.75 3.75z"></path>
</symbol>
<symbol id="icon-heart" viewBox="0 0 32 32">
<path d="M16.747 20.885c1.413-1.687 2.1-3.233 2.1-4.725 0-2.723-2.215-4.938-4.938-4.938-1.422 0-2.776 0.615-3.716 1.688l-0.705 0.806-0.705-0.806c-0.939-1.073-2.294-1.688-3.716-1.688-2.723 0-4.938 2.215-4.938 4.938 0 1.493 0.687 3.038 2.1 4.725 1.55 1.85 3.991 3.845 7.259 5.934 3.268-2.089 5.709-4.083 7.259-5.934z"></path>
<path d="M24.184 4.071c-2.384 0-4.521 1.052-5.978 2.715-1.456-1.663-3.594-2.715-5.978-2.715-3.454 0-6.393 2.205-7.487 5.283 1.696-0.080 3.454 0.52 4.747 1.623 1.226-1.046 2.791-1.631 4.421-1.631 3.757 0 6.813 3.056 6.813 6.813 0 1.924-0.854 3.919-2.538 5.93-0.942 1.124-2.136 2.261-3.606 3.429 1.106 0.783 2.313 1.586 3.628 2.41 10.201-6.387 13.922-11.533 13.922-15.912 0-4.388-3.557-7.945-7.945-7.945z"></path>
</symbol>
<symbol id="icon-self-realization" viewBox="0 0 32 32">
<path d="M18.165 2.786c1.159 0 2.23 0.377 3.098 1.013l-0.656-1.57c-0.564-1.35-1.884-2.229-3.348-2.229-2.004 0-3.628 1.624-3.628 3.627v1.767c0.905-1.557 2.597-2.608 4.533-2.608z"></path>
<path d="M18.165 3.485c-2.504 0-4.533 2.015-4.533 4.5s2.030 4.5 4.533 4.5c2.504 0 4.533-2.015 4.533-4.5s-2.030-4.5-4.533-4.5zM18.165 11.034c-0.193 0-0.349-0.156-0.349-0.349s0.156-0.349 0.349-0.349c1.307 0 2.371-1.054 2.371-2.351 0-0.193 0.156-0.349 0.349-0.349s0.349 0.156 0.349 0.349c0 1.681-1.377 3.049-3.069 3.049z"></path>
<path d="M4.867 2.786c1.936 0 3.628 1.051 4.533 2.608v-1.767c0-2.003-1.624-3.627-3.628-3.627-1.463 0-2.784 0.879-3.348 2.229l-0.656 1.57c0.868-0.636 1.94-1.013 3.098-1.013z"></path>
<path d="M4.867 3.485c-2.504 0-4.533 2.015-4.533 4.5s2.030 4.5 4.533 4.5c2.504 0 4.533-2.015 4.533-4.5s-2.030-4.5-4.533-4.5zM4.867 11.034c-1.693 0-3.069-1.368-3.069-3.049 0-0.193 0.156-0.349 0.349-0.349s0.349 0.156 0.349 0.349c0 1.296 1.063 2.351 2.371 2.351 0.193 0 0.349 0.156 0.349 0.349s-0.157 0.349-0.349 0.349z"></path>
<path d="M9.852 5.494c1.196-0.647 2.492-0.477 3.636 0.167 0.048-0.089 0.096-0.178 0.143-0.266v-0.834c0-1.168-0.947-2.115-2.116-2.115s-2.115 0.947-2.115 2.115v0.834c0.051 0.087 0.098 0.176 0.143 0.266l0.308-0.167z"></path>
<path d="M12.933 7.985c0-0.587 0.1-1.151 0.281-1.678-1.15-0.652-2.249-0.651-3.396 0 0.38 1.104 0.372 2.327-0.024 3.425 1.018-0.774 2.425-0.774 3.443 0-0.197-0.546-0.305-1.134-0.305-1.747zM11.516 8.198c-0.3 0-0.544-0.242-0.544-0.54s0.244-0.54 0.544-0.54 0.544 0.242 0.544 0.54c0 0.298-0.244 0.54-0.544 0.54z"></path>
<path d="M31.775 21.136c-0.402-0.698-0.921-1.671-1.381-2.681-0.46-0.946-0.837-2.616-0.837-3.718-0.256-3.052-1.21-5.917-3.383-8.171-1.141-1.184-2.533-2.013-4.056-2.533 0.537 1.285 1.278 2.52 1.278 3.951 0 2.866-2.347 5.199-5.232 5.199-1.679 0-3.174-0.791-4.133-2.016-0.744-0.537-1.546-1.327-2.516-1.327-0.885 0-1.694 0.66-2.342 1.201-0.61 0.51-1.075 1.107-1.795 1.501-0.372 2.312-0.073 4.696 0.869 6.857 2.945-0.514 5.735 1.826 5.735 4.817 0 2.209-1.473 4.080-3.488 4.685l-0.015 3.099h14.2v-0.792c-0.006 0-0.013-0-0.020-0.001-1.67-0.094-3.431-0.56-5.233-1.386-0.175-0.081-0.252-0.288-0.172-0.463s0.288-0.252 0.463-0.172c1.72 0.788 3.393 1.234 4.973 1.323h1.294c1.978 0 3.581-1.582 3.581-3.533v-4.261h1.406c0.745 0 1.205-0.918 0.803-1.579z"></path>
<path d="M9.091 20.025c-2.316 0-4.193 1.877-4.193 4.192 0 1.032 0.374 1.976 0.992 2.706l-3.103 3.102c-0.207 0.207-0.046 0.596 0.247 0.596 0.089 0 0.179-0.034 0.247-0.102l3.102-3.102c0.731 0.618 1.675 0.992 2.707 0.992 2.316 0 4.193-1.877 4.193-4.192s-1.877-4.192-4.193-4.192zM9.091 22.191c-1.118 0-2.027 0.909-2.027 2.026 0 0.193-0.156 0.349-0.349 0.349s-0.349-0.156-0.349-0.349c0-1.503 1.223-2.725 2.726-2.725 0.193 0 0.349 0.156 0.349 0.349s-0.156 0.349-0.349 0.349z"></path>
</symbol>
<symbol id="icon-self-love" viewBox="0 0 32 32">
<path d="M27.318 18.308c-0.33 1.014-0.86 1.973-1.577 2.85-0.295 0.361-0.654 0.768-1.076 1.193-0.008 0.006-0.016 0.013-0.023 0.020s-0.015 0.016-0.022 0.024c-1.744 1.745-4.562 3.812-8.565 4.544h-0.002c-0.019 0.002-0.038 0.005-0.056 0.010-0.611 0.109-1.228 0.184-1.848 0.224-1.612 0.106-3.168-0.174-4.498-0.812-1.888-0.904-2.603-2.063-2.133-3.45 0.604 0.214 2.045 0.649 3.936 0.708 1.422 0.049 2.843-0.14 4.203-0.559 1.673-0.52 3.229-1.399 4.626-2.613 0.043-0.037 0.075-0.086 0.093-0.14s0.022-0.112 0.010-0.168c-0.005-0.026-0.544-2.651 0.066-3.854 0.074-0.148 0.188-0.273 0.33-0.36s0.304-0.132 0.47-0.131c0.244 0.006 0.41 0.121 0.521 0.363 0.006 0.013 0.013 0.025 0.020 0.037 0.005 0.007 0.429 0.696 0 1.362-0.023 0.035-0.038 0.075-0.046 0.116s-0.007 0.084 0.002 0.125c0.009 0.041 0.026 0.080 0.050 0.115s0.054 0.064 0.090 0.087c0.035 0.023 0.075 0.038 0.116 0.046s0.084 0.007 0.125-0.002c0.041-0.009 0.080-0.026 0.115-0.050s0.064-0.054 0.087-0.090c0.006-0.009 0.586-0.896 1.329-1.696 0.892-0.96 1.632-1.387 2.082-1.199 0.059 0.024 0.117 0.049 0.176 0.073 0.538 0.221 1.047 0.43 1.355 0.816 0.010 0.017 0.022 0.032 0.035 0.046 0.007 0.010 0.015 0.021 0.022 0.032 0.339 0.497 0.334 1.258-0.014 2.33z"></path>
<path d="M15.149 22.552c-1.16 0.326-2.378 0.47-3.652 0.433-2.346-0.068-4.007-0.763-4.036-0.775-0.040-0.017-0.083-0.026-0.126-0.026-0.324-0.334-0.63-0.678-0.913-1.024-0.717-0.876-1.248-1.835-1.578-2.85s-0.352-1.747-0.070-2.24l0.004-0.006c0.288-0.49 0.859-0.725 1.464-0.975 0.060-0.024 0.119-0.049 0.178-0.073 0.433-0.181 1.14 0.211 1.991 1.102 0.68 0.712 1.233 1.512 1.401 1.763l0.002 0.003 0.007 0.011 0.007 0.011c0 0 0.004 0.007 0.006 0.010 0.045 0.067 0.114 0.115 0.194 0.133s0.162 0.006 0.233-0.035c0.070-0.041 0.122-0.107 0.146-0.184s0.017-0.162-0.019-0.234c-0.006-0.011-0.012-0.022-0.019-0.032v-0.002c-0.004-0.007-0.008-0.013-0.012-0.020-0.001-0.001-0.002-0.002-0.002-0.003-0.393-0.649 0.003-1.308 0.019-1.334 0.008-0.012 0.014-0.025 0.020-0.038 0.111-0.242 0.276-0.357 0.521-0.363 0.166-0.002 0.329 0.044 0.471 0.131s0.256 0.212 0.329 0.361c0.611 1.202 0.071 3.828 0.066 3.854-0.012 0.056-0.008 0.114 0.010 0.168s0.050 0.102 0.094 0.14c0.98 0.856 2.081 1.562 3.267 2.095z"></path>
<path d="M28.929 11.247c0.002 1.454-0.49 2.865-1.394 4.003-0.39-0.352-0.889-0.557-1.376-0.756l-0.173-0.071c-0.736-0.307-1.68 0.15-2.802 1.36-0.221 0.238-0.426 0.48-0.608 0.708-0.046-0.214-0.125-0.42-0.232-0.611-0.214-0.453-0.597-0.708-1.080-0.719-0.286-0.004-0.568 0.072-0.813 0.221s-0.443 0.363-0.572 0.619c-0.614 1.21-0.278 3.426-0.158 4.087-1.126 0.953-2.337 1.671-3.631 2.157-1.301-0.484-2.528-1.208-3.648-2.156 0.12-0.662 0.457-2.878-0.158-4.087-0.128-0.256-0.326-0.471-0.571-0.62s-0.527-0.226-0.814-0.221c-0.484 0.011-0.867 0.266-1.081 0.719-0.108 0.191-0.186 0.397-0.232 0.612-0.211-0.263-0.453-0.547-0.712-0.819-1.077-1.128-1.984-1.549-2.7-1.251l-0.176 0.075c-0.516 0.212-1.088 0.448-1.497 0.878-1.815-2.643-1.502-6.248 0.796-8.547 2.621-2.62 6.885-2.62 9.504 0l1.268 1.266c0.030 0.030 0.066 0.054 0.106 0.070 0.010 0.004 0.019 0.007 0.029 0.010s0.020 0.005 0.030 0.007c0.040 0.008 0.082 0.008 0.122 0 0.010-0.002 0.020-0.004 0.030-0.007s0.020-0.006 0.029-0.010c0.040-0.016 0.076-0.040 0.106-0.070l1.403-1.403c0.901-0.902 2.050-1.516 3.3-1.765s2.546-0.121 3.724 0.367c1.178 0.488 2.185 1.314 2.893 2.374s1.086 2.306 1.086 3.581z"></path>
</symbol>
<symbol id="icon-Group" viewBox="0 0 32 32">
<path d="M1.92 5.76c-0.003-0-0.006-0-0.009-0-0.353 0-0.64 0.287-0.64 0.64s0.287 0.64 0.64 0.64c0.003 0 0.006-0 0.010-0h28.16c0.003 0 0.006 0 0.009 0 0.354 0 0.64-0.287 0.64-0.64s-0.287-0.64-0.64-0.64c-0.003 0-0.006 0-0.010 0h-28.16zM1.92 15.36c-0.003-0-0.006-0-0.009-0-0.353 0-0.64 0.287-0.64 0.64s0.287 0.64 0.64 0.64c0.003 0 0.006-0 0.010-0h28.16c0.003 0 0.006 0 0.009 0 0.354 0 0.64-0.287 0.64-0.64s-0.287-0.64-0.64-0.64c-0.003 0-0.006 0-0.010 0h-28.16zM1.92 24.96c-0.003-0-0.006-0-0.009-0-0.353 0-0.64 0.287-0.64 0.64s0.287 0.64 0.64 0.64c0.003 0 0.006-0 0.010-0h28.16c0.003 0 0.006 0 0.009 0 0.354 0 0.64-0.287 0.64-0.64s-0.287-0.64-0.64-0.64c-0.003 0-0.006 0-0.010 0h-28.16z"></path>
</symbol>
<symbol id="icon-instagram" viewBox="0 0 32 32">
<path d="M19.063 16c0 1.691-1.371 3.063-3.063 3.063s-3.063-1.371-3.063-3.063c0-1.691 1.371-3.063 3.063-3.063s3.063 1.371 3.063 3.063z"></path>
<path d="M23.162 10.582c-0.147-0.399-0.382-0.76-0.687-1.056-0.296-0.305-0.657-0.54-1.056-0.687-0.324-0.126-0.81-0.275-1.706-0.316-0.969-0.044-1.26-0.054-3.713-0.054s-2.744 0.009-3.713 0.053c-0.896 0.041-1.382 0.191-1.706 0.316-0.399 0.147-0.76 0.382-1.056 0.687-0.305 0.296-0.54 0.657-0.688 1.056-0.126 0.324-0.275 0.81-0.316 1.706-0.044 0.969-0.054 1.259-0.054 3.713s0.010 2.744 0.054 3.713c0.041 0.896 0.19 1.382 0.316 1.706 0.147 0.399 0.382 0.76 0.687 1.056 0.296 0.305 0.657 0.54 1.056 0.687 0.324 0.126 0.81 0.276 1.706 0.316 0.969 0.044 1.259 0.053 3.712 0.053s2.744-0.009 3.713-0.053c0.896-0.041 1.382-0.19 1.706-0.316 0.801-0.309 1.435-0.942 1.744-1.744 0.126-0.324 0.275-0.81 0.316-1.706 0.044-0.969 0.053-1.26 0.053-3.713s-0.009-2.744-0.053-3.713c-0.041-0.896-0.19-1.382-0.316-1.706zM16 20.718c-2.606 0-4.718-2.112-4.718-4.718s2.112-4.718 4.718-4.718c2.605 0 4.718 2.112 4.718 4.718s-2.112 4.718-4.718 4.718zM20.904 12.198c-0.609 0-1.103-0.494-1.103-1.103s0.494-1.103 1.103-1.103c0.609 0 1.103 0.494 1.103 1.103s-0.494 1.103-1.103 1.103z"></path>
<path d="M16 0c-8.835 0-16 7.165-16 16s7.165 16 16 16c8.835 0 16-7.165 16-16s-7.165-16-16-16zM25.132 19.788c-0.044 0.978-0.2 1.646-0.427 2.23-0.477 1.234-1.453 2.21-2.687 2.687-0.584 0.227-1.252 0.382-2.23 0.427-0.98 0.045-1.293 0.055-3.788 0.055s-2.808-0.011-3.788-0.055c-0.978-0.045-1.646-0.2-2.23-0.427-0.613-0.231-1.168-0.592-1.627-1.060-0.467-0.459-0.829-1.014-1.060-1.627-0.227-0.584-0.383-1.252-0.427-2.23-0.045-0.98-0.056-1.293-0.056-3.788s0.011-2.808 0.055-3.788c0.044-0.978 0.2-1.646 0.427-2.23 0.231-0.613 0.593-1.168 1.060-1.627 0.459-0.468 1.014-0.829 1.627-1.060 0.584-0.227 1.252-0.382 2.23-0.427 0.98-0.045 1.293-0.055 3.788-0.055s2.808 0.011 3.788 0.056c0.978 0.044 1.646 0.2 2.23 0.426 0.613 0.231 1.168 0.593 1.627 1.060 0.467 0.459 0.829 1.014 1.060 1.627 0.227 0.584 0.383 1.252 0.427 2.23 0.045 0.98 0.055 1.293 0.055 3.788s-0.011 2.808-0.055 3.788z"></path>
</symbol>
<symbol id="icon-leaf" viewBox="0 0 32 32">
<path d="M27.611 5.395c-0.277-0.121-0.591-0.043-0.782 0.195-2.369 2.941-9.303 3.385-11.373 3.451-0.501 0.016-1.017 0.077-1.533 0.183-10.284 2.093-10.127 9.657-9.835 11.925 0.048 0.375 0.3 0.681 0.657 0.8 0.354 0.118 0.734 0.022 0.994-0.246 1.201-1.245 3.836-3.485 7.976-4.493 1.711-0.416 3.334-1.18 4.778-2.056-1.688 1.282-3.865 2.666-6.621 3.96-2.763 1.298-4.793 3.548-5.538 4.455-0.17 0.206-0.247 0.477-0.212 0.741 0.036 0.268 0.184 0.511 0.406 0.669 0.707 0.502 1.55 0.907 2.503 1.204 1.027 0.319 2.084 0.477 3.143 0.477 2.14 0 4.282-0.643 6.165-1.891 7.232-4.794 9.22-15.515 9.656-18.686 0.041-0.294-0.113-0.571-0.384-0.689z"></path>
</symbol>
<symbol id="icon-Brain" viewBox="0 0 32 32">
<path d="M11.732 26.504c-0.472 0-0.885-0.153-1.21-0.447-0.427-0.386-0.604-0.95-0.541-1.719-0.175-0.011-0.35 0-0.534 0.009-0.382 0.023-0.777 0.047-1.201-0.139-1.565-0.681-1.538-2.067-1.332-3.123-1.157-0.568-2.023-1.629-2.279-2.808-0.285-1.303 0.058-2.532 0.898-3.282-0.804-0.737-1.125-1.943-0.766-2.981 0.375-1.081 1.338-1.865 2.358-1.957-0.159-0.971 0.137-2.145 1.062-2.721 0.539-0.335 1.049-0.44 1.657-0.472-0.047-0.584 0.159-0.953 0.234-1.083 0.29-0.519 0.844-0.91 1.565-1.108 0.921-0.252 1.994-0.155 2.675 0.24l0.045 0.025c0.921 0.535 1.161 0.845 1.161 4.956 0 2.062-0.031 10.676-0.034 11.042-0.007 1.4-0.081 2.662-0.934 3.954-0.445 0.674-1.484 1.46-2.533 1.593-0.099 0.014-0.198 0.018-0.292 0.018l0.002 0.002zM9.814 23.882c0.146 0 0.299 0.009 0.454 0.038l0.211 0.038-0.029 0.211c-0.099 0.737 0.018 1.229 0.373 1.55 0.296 0.27 0.683 0.375 1.145 0.317 0.883-0.11 1.819-0.795 2.214-1.395 0.786-1.191 0.853-2.334 0.86-3.705 0-0.368 0.034-8.982 0.034-11.044 0-4.021-0.236-4.158-0.939-4.567l-0.045-0.027c-0.582-0.339-1.518-0.418-2.329-0.195-0.604 0.166-1.062 0.479-1.287 0.883-0.076 0.137-0.265 0.474-0.155 1.047l0.052 0.261-0.267 0.007c-0.667 0.013-1.157 0.088-1.682 0.413-0.829 0.514-1.033 1.644-0.806 2.496l0.079 0.294-0.303-0.011c-0.927-0.027-1.855 0.665-2.201 1.662-0.323 0.932 0.034 2.074 0.829 2.655l0.249 0.182-0.252 0.182c-0.853 0.616-1.217 1.766-0.948 3.001 0.24 1.096 1.078 2.083 2.19 2.57l0.168 0.074-0.040 0.18c-0.33 1.498-0.022 2.332 1.035 2.79 0.326 0.142 0.651 0.121 0.995 0.101 0.128-0.007 0.26-0.016 0.395-0.016v0.007z"></path>
<path d="M15.235 22.327c-0.123 0-0.225-0.099-0.225-0.222-0.007-1.114-0.454-2.211-1.228-3.008s-1.857-1.281-2.969-1.321c-0.128-0.005-0.258-0.005-0.388-0.002-0.296 0-0.6 0.004-0.903-0.056-0.557-0.112-0.979-0.436-1.132-0.865-0.040-0.117 0.020-0.245 0.137-0.285 0.117-0.043 0.245 0.020 0.285 0.137 0.114 0.328 0.487 0.512 0.795 0.573 0.258 0.052 0.528 0.049 0.811 0.047 0.135 0 0.272 0 0.406 0.002 1.226 0.045 2.421 0.575 3.274 1.456 0.856 0.881 1.35 2.091 1.356 3.318 0 0.124-0.099 0.225-0.222 0.227h0.002z"></path>
<path d="M8.602 22.523c-0.101 0-0.193-0.067-0.218-0.171-0.029-0.121 0.043-0.243 0.164-0.272 0.424-0.108 0.833-0.449 1.148-0.962 0.182-0.294 0.319-0.611 0.465-0.946 0.085-0.195 0.171-0.389 0.263-0.58 0.335-0.681 0.707-1.123 1.17-1.388 0.548-0.317 1.55-0.308 2.066 0.177 0.090 0.085 0.094 0.227 0.011 0.317-0.085 0.090-0.227 0.097-0.317 0.011-0.328-0.308-1.103-0.364-1.536-0.115-0.382 0.22-0.696 0.6-0.99 1.197-0.090 0.184-0.173 0.373-0.254 0.559-0.146 0.332-0.296 0.678-0.494 1-0.265 0.434-0.728 0.988-1.422 1.164-0.018 0.004-0.036 0.007-0.054 0.007h-0.002z"></path>
<path d="M15.258 21.211c0 0-0.014 0-0.023 0-0.123-0.011-0.213-0.121-0.202-0.245 0.238-2.464-1.008-5.010-3.099-6.335-0.191-0.121-0.397-0.238-0.595-0.35-0.656-0.373-1.336-0.762-1.758-1.42-0.067-0.103-0.038-0.243 0.067-0.31 0.103-0.067 0.242-0.036 0.31 0.067 0.364 0.566 0.966 0.908 1.603 1.272 0.204 0.115 0.413 0.236 0.613 0.362 2.23 1.413 3.559 4.129 3.306 6.758-0.011 0.117-0.11 0.202-0.222 0.202z"></path>
<path d="M14.541 17.466c-0.079 0-0.155-0.040-0.195-0.115-0.267-0.478-0.665-1.161-1.031-1.573-0.272-0.306-0.719-0.696-1.291-0.809-0.543-0.108-1.134 0.047-1.655 0.187l-1.352 0.357c-0.119 0.031-0.242-0.040-0.274-0.16s0.040-0.243 0.159-0.274l1.352-0.357c0.568-0.15 1.21-0.321 1.855-0.191 0.696 0.139 1.222 0.593 1.541 0.953 0.393 0.443 0.808 1.155 1.087 1.651 0.061 0.108 0.023 0.245-0.085 0.306-0.034 0.020-0.072 0.029-0.11 0.029v-0.005z"></path>
<path d="M15.278 16.399c0 0-0.014 0-0.023 0-0.123-0.011-0.213-0.121-0.202-0.245 0.097-1.015-0.132-2.060-0.647-2.941-0.263-0.452-0.604-0.869-0.936-1.276-0.371-0.454-0.752-0.923-1.044-1.454-0.631-1.155-0.777-2.539-0.404-3.799 0.036-0.119 0.159-0.186 0.278-0.151s0.186 0.16 0.15 0.279c-0.339 1.148-0.207 2.406 0.368 3.457 0.27 0.494 0.624 0.926 0.997 1.386 0.341 0.42 0.696 0.851 0.977 1.334 0.559 0.962 0.811 2.101 0.705 3.208-0.011 0.117-0.108 0.204-0.222 0.204l0.002-0.005z"></path>
<path d="M14.921 13.977c-0.097 0-0.186-0.063-0.216-0.162-0.272-0.914-1.525-1.71-2.526-1.88-0.157-0.027-0.314-0.043-0.469-0.061-0.375-0.040-0.764-0.081-1.143-0.256-0.806-0.368-1.365-0.991-1.491-1.662-0.023-0.121 0.056-0.24 0.18-0.263 0.121-0.023 0.24 0.056 0.263 0.18 0.099 0.53 0.561 1.029 1.237 1.337 0.314 0.144 0.649 0.18 1.006 0.218 0.162 0.018 0.328 0.036 0.496 0.063 1.154 0.195 2.549 1.072 2.881 2.195 0.036 0.119-0.034 0.245-0.15 0.279-0.020 0.007-0.043 0.009-0.063 0.009l-0.004 0.004z"></path>
<path d="M15.278 27.465c-0.124 0-0.225-0.101-0.225-0.225v-17.631c0-0.124 0.101-0.225 0.225-0.225s0.225 0.101 0.225 0.225v17.633c0 0.124-0.101 0.225-0.225 0.225v-0.002z"></path>
<path d="M10.432 20.083c0 0-0.011-0.020-0.018-0.031-0.775-0.025-1.549 0.395-1.951 1.058s-0.415 1.543-0.036 2.22c0.020-0.011 0.045-0.023 0.067-0.036 0.49-1.132 1.024-2.341 1.938-3.213v0.002z"></path>
<path d="M8.494 23.296c0.204-0.11 0.483-0.276 0.669-0.371 0.326-0.166 0.658-0.335 0.923-0.589 0.62-0.591 0.788-1.525 0.346-2.253-0.914 0.869-1.448 2.080-1.938 3.213z"></path>
<path d="M10.313 17.661c0 0 0.018-0.016 0.025-0.025-0.18-0.755-0.79-1.391-1.536-1.602-0.746-0.213-1.599 0.007-2.149 0.553 0.016 0.018 0.034 0.036 0.052 0.056 1.219 0.173 2.529 0.368 3.609 1.020v-0.002z"></path>
<path d="M6.704 16.641c0.159 0.168 0.393 0.391 0.534 0.548 0.247 0.272 0.499 0.546 0.811 0.735 0.732 0.44 1.68 0.357 2.264-0.263-1.080-0.652-2.389-0.847-3.609-1.020z"></path>
<path d="M10.955 13.669c0 0 0.020-0.011 0.029-0.020-0.016-0.775-0.478-1.525-1.161-1.892-0.685-0.366-1.563-0.332-2.216 0.085 0.011 0.020 0.025 0.043 0.038 0.065 1.157 0.427 2.392 0.896 3.31 1.761z"></path>
<path d="M7.645 11.91c0.121 0.2 0.301 0.467 0.406 0.649 0.184 0.317 0.371 0.638 0.638 0.89 0.622 0.586 1.565 0.705 2.266 0.222-0.918-0.865-2.156-1.334-3.31-1.761z"></path>
<path d="M12.031 9.322c0 0 0.018 0.013 0.029 0.020 0.712-0.306 1.237-1.013 1.32-1.784s-0.276-1.575-0.907-2.026c-0.013 0.018-0.029 0.038-0.045 0.061 0.036 1.231 0.063 2.554-0.395 3.729h-0.002z"></path>
<path d="M12.428 5.593c-0.139 0.186-0.319 0.454-0.449 0.62-0.225 0.288-0.454 0.582-0.586 0.923-0.31 0.798-0.070 1.716 0.64 2.186 0.46-1.175 0.431-2.498 0.395-3.729z"></path>
<path d="M9.689 10.944c0 0 0.016 0 0.022 0.002 0.314-0.409 0.386-0.991 0.184-1.465s-0.674-0.822-1.188-0.878c-0.002 0.016-0.004 0.034-0.007 0.049 0.422 0.703 0.869 1.46 0.986 2.294l0.002-0.002z"></path>
<path d="M8.703 8.65c-0.020 0.153-0.038 0.368-0.058 0.505-0.036 0.24-0.074 0.485-0.038 0.728 0.079 0.564 0.519 1.018 1.085 1.060-0.117-0.831-0.564-1.591-0.986-2.294h-0.002z"></path>
<path d="M9.754 15.206c0 0 0.009-0.011 0.014-0.018-0.182-0.483-0.638-0.851-1.148-0.93s-1.056 0.139-1.372 0.546c0.011 0.011 0.025 0.020 0.038 0.031 0.82 0.011 1.7 0.031 2.468 0.371z"></path>
<path d="M7.286 14.837c0.119 0.099 0.292 0.227 0.4 0.317 0.186 0.157 0.375 0.319 0.597 0.418 0.521 0.229 1.139 0.094 1.471-0.362-0.768-0.339-1.648-0.359-2.468-0.371v-0.002z"></path>
<path d="M20.268 26.504c-0.094 0-0.193-0.007-0.292-0.018-1.049-0.133-2.088-0.919-2.533-1.593-0.853-1.292-0.927-2.554-0.934-3.949 0-0.368-0.034-8.982-0.034-11.044 0-4.111 0.24-4.421 1.161-4.956l0.045-0.025c0.678-0.395 1.754-0.494 2.675-0.24 0.721 0.198 1.276 0.586 1.561 1.099 0.079 0.139 0.285 0.508 0.238 1.092 0.611 0.031 1.118 0.137 1.657 0.472 0.925 0.575 1.222 1.75 1.062 2.721 1.022 0.092 1.985 0.876 2.358 1.957 0.359 1.038 0.038 2.247-0.766 2.981 0.84 0.75 1.183 1.979 0.898 3.282-0.258 1.179-1.123 2.24-2.279 2.808 0.209 1.056 0.236 2.442-1.332 3.123-0.424 0.184-0.82 0.162-1.201 0.139-0.182-0.011-0.359-0.023-0.534-0.009 0.063 0.768-0.115 1.332-0.541 1.719-0.326 0.294-0.741 0.447-1.21 0.447l0.002-0.005zM16.958 20.939c0.007 1.37 0.074 2.514 0.86 3.705 0.395 0.598 1.332 1.283 2.214 1.395 0.463 0.058 0.849-0.047 1.145-0.317 0.355-0.321 0.472-0.813 0.373-1.55l-0.029-0.211 0.211-0.038c0.301-0.056 0.579-0.038 0.849-0.023 0.344 0.020 0.669 0.040 0.995-0.101 1.055-0.458 1.365-1.294 1.033-2.79l-0.040-0.18 0.168-0.074c1.109-0.488 1.949-1.474 2.19-2.57 0.269-1.236-0.094-2.386-0.948-3.001l-0.252-0.182 0.249-0.182c0.795-0.582 1.152-1.723 0.829-2.655-0.337-0.975-1.228-1.665-2.138-1.665-0.022 0-0.043 0-0.065 0l-0.303 0.011 0.079-0.294c0.227-0.851 0.023-1.981-0.806-2.496-0.528-0.328-1.015-0.4-1.682-0.413l-0.267-0.007 0.052-0.261c0.11-0.573-0.079-0.91-0.148-1.038-0.231-0.413-0.687-0.728-1.291-0.892-0.813-0.222-1.747-0.144-2.329 0.195l-0.045 0.025c-0.701 0.409-0.939 0.546-0.939 4.567 0 2.062 0.031 10.676 0.034 11.040l-0.225 0.004h0.225l0.002-0.002z"></path>
<path d="M16.765 22.327c-0.124 0-0.225-0.101-0.222-0.227 0.007-1.229 0.501-2.438 1.356-3.318s2.048-1.411 3.274-1.456c0.135-0.004 0.272-0.004 0.407-0.002 0.283 0 0.552 0.005 0.811-0.047 0.31-0.063 0.68-0.245 0.795-0.573 0.040-0.117 0.168-0.18 0.285-0.137 0.117 0.040 0.177 0.168 0.137 0.285-0.151 0.431-0.573 0.753-1.132 0.865-0.303 0.061-0.609 0.058-0.903 0.056-0.13 0-0.258 0-0.389 0.002-1.112 0.040-2.194 0.521-2.969 1.321s-1.224 1.896-1.228 3.008c0 0.124-0.101 0.222-0.225 0.222h0.002z"></path>
<path d="M23.398 22.523c-0.018 0-0.036 0-0.054-0.007-0.692-0.173-1.154-0.728-1.422-1.164-0.198-0.321-0.348-0.667-0.494-1.002-0.083-0.187-0.164-0.375-0.254-0.559-0.294-0.598-0.608-0.98-0.99-1.197-0.433-0.249-1.208-0.191-1.536 0.115-0.090 0.085-0.233 0.081-0.317-0.011-0.085-0.090-0.081-0.234 0.011-0.317 0.519-0.485 1.518-0.492 2.066-0.178 0.463 0.265 0.833 0.708 1.17 1.388 0.094 0.189 0.177 0.384 0.263 0.577 0.146 0.335 0.285 0.649 0.465 0.946 0.314 0.514 0.721 0.856 1.148 0.962 0.121 0.029 0.193 0.153 0.164 0.272-0.025 0.101-0.117 0.171-0.218 0.171l-0.002 0.005z"></path>
<path d="M16.742 21.211c-0.114 0-0.211-0.088-0.222-0.202-0.254-2.628 1.076-5.345 3.306-6.758 0.2-0.126 0.411-0.247 0.613-0.362 0.638-0.364 1.24-0.705 1.603-1.272 0.067-0.103 0.207-0.135 0.31-0.067s0.135 0.207 0.067 0.31c-0.424 0.658-1.103 1.045-1.761 1.42-0.198 0.112-0.404 0.229-0.595 0.35-2.091 1.325-3.337 3.871-3.099 6.335 0.011 0.124-0.079 0.234-0.202 0.245-0.007 0-0.013 0-0.022 0h0.002z"></path>
<path d="M17.456 17.466c-0.038 0-0.074-0.009-0.11-0.029-0.108-0.061-0.146-0.198-0.085-0.306 0.279-0.497 0.694-1.209 1.087-1.651 0.319-0.357 0.844-0.813 1.541-0.953 0.645-0.128 1.289 0.043 1.855 0.191l1.352 0.357c0.119 0.031 0.191 0.155 0.159 0.274s-0.155 0.191-0.274 0.159l-1.352-0.357c-0.521-0.137-1.112-0.292-1.655-0.186-0.575 0.115-1.020 0.503-1.291 0.809-0.364 0.411-0.764 1.094-1.031 1.573-0.040 0.074-0.117 0.115-0.195 0.115v0.004z"></path>
<path d="M16.722 16.399c-0.115 0-0.213-0.088-0.222-0.204-0.106-1.107 0.146-2.247 0.705-3.208 0.281-0.481 0.633-0.914 0.977-1.334 0.375-0.458 0.728-0.892 0.997-1.384 0.573-1.049 0.707-2.309 0.368-3.457-0.036-0.119 0.034-0.245 0.15-0.279 0.119-0.036 0.245 0.034 0.279 0.151 0.373 1.26 0.224 2.646-0.404 3.799-0.29 0.53-0.674 1-1.042 1.454-0.33 0.407-0.674 0.824-0.936 1.276-0.512 0.881-0.743 1.925-0.647 2.941 0.011 0.124-0.079 0.234-0.202 0.245-0.007 0-0.013 0-0.022 0v0.002z"></path>
<path d="M17.079 13.977c-0.020 0-0.043-0.002-0.063-0.009-0.119-0.036-0.186-0.159-0.15-0.279 0.332-1.123 1.727-1.999 2.881-2.195 0.168-0.029 0.335-0.047 0.496-0.063 0.355-0.038 0.692-0.074 1.006-0.218 0.674-0.308 1.136-0.807 1.237-1.337 0.023-0.121 0.142-0.2 0.263-0.18 0.121 0.023 0.202 0.139 0.18 0.263-0.128 0.674-0.685 1.294-1.491 1.662-0.38 0.173-0.768 0.216-1.143 0.256-0.155 0.018-0.312 0.034-0.469 0.061-1.002 0.171-2.255 0.966-2.526 1.88-0.029 0.097-0.119 0.162-0.216 0.162l-0.005-0.005z"></path>
<path d="M16.722 27.465c-0.124 0-0.225-0.101-0.225-0.225v-17.631c0-0.124 0.101-0.225 0.225-0.225s0.225 0.101 0.225 0.225v17.633c0 0.124-0.101 0.225-0.225 0.225v-0.002z"></path>
<path d="M21.568 20.083c0 0 0.011-0.020 0.018-0.031 0.775-0.025 1.55 0.395 1.951 1.058s0.416 1.543 0.036 2.22c-0.020-0.011-0.045-0.023-0.067-0.036-0.49-1.132-1.024-2.341-1.938-3.213v0.002z"></path>
<path d="M23.504 23.296c-0.204-0.11-0.483-0.276-0.669-0.371-0.326-0.166-0.658-0.335-0.923-0.589-0.62-0.591-0.788-1.525-0.346-2.253 0.914 0.869 1.448 2.080 1.938 3.213z"></path>
<path d="M21.687 17.661c0 0-0.016-0.016-0.025-0.025 0.18-0.755 0.79-1.391 1.536-1.602 0.746-0.213 1.599 0.007 2.149 0.553-0.016 0.018-0.034 0.036-0.052 0.056-1.219 0.173-2.529 0.368-3.609 1.020v-0.002z"></path>
<path d="M25.296 16.641c-0.159 0.168-0.393 0.391-0.535 0.548-0.247 0.272-0.498 0.546-0.811 0.735-0.732 0.44-1.68 0.357-2.264-0.263 1.080-0.652 2.389-0.847 3.609-1.020z"></path>
<path d="M21.045 13.669c0 0-0.020-0.011-0.029-0.020 0.016-0.775 0.478-1.525 1.161-1.892 0.685-0.366 1.563-0.332 2.216 0.085-0.011 0.020-0.025 0.043-0.038 0.065-1.157 0.427-2.392 0.896-3.31 1.761z"></path>
<path d="M24.355 11.91c-0.121 0.2-0.301 0.467-0.407 0.649-0.184 0.317-0.37 0.638-0.638 0.89-0.622 0.586-1.565 0.705-2.266 0.222 0.919-0.865 2.156-1.334 3.31-1.761z"></path>
<path d="M19.967 9.322c0 0-0.018 0.013-0.029 0.020-0.712-0.306-1.237-1.013-1.32-1.784s0.276-1.575 0.907-2.026c0.014 0.018 0.029 0.038 0.045 0.061-0.036 1.231-0.063 2.554 0.395 3.729h0.002z"></path>
<path d="M19.572 5.593c0.139 0.186 0.319 0.454 0.449 0.62 0.224 0.288 0.454 0.582 0.586 0.923 0.31 0.798 0.070 1.716-0.64 2.186-0.46-1.175-0.431-2.498-0.395-3.729z"></path>
<path d="M22.311 10.944c0 0-0.016 0-0.023 0.002-0.314-0.409-0.386-0.991-0.184-1.465s0.674-0.822 1.188-0.878c0.002 0.016 0.005 0.034 0.007 0.049-0.422 0.703-0.869 1.46-0.986 2.294l-0.002-0.002z"></path>
<path d="M23.297 8.65c0.020 0.153 0.038 0.368 0.058 0.505 0.036 0.24 0.074 0.485 0.038 0.728-0.079 0.564-0.519 1.018-1.085 1.060 0.117-0.831 0.564-1.591 0.986-2.294h0.002z"></path>
<path d="M22.246 15.206c0 0-0.009-0.011-0.014-0.018 0.182-0.483 0.638-0.851 1.148-0.93s1.055 0.139 1.372 0.546c-0.011 0.011-0.025 0.020-0.038 0.031-0.82 0.011-1.7 0.031-2.468 0.371z"></path>
<path d="M24.712 14.837c-0.119 0.099-0.292 0.227-0.4 0.317-0.186 0.157-0.375 0.319-0.597 0.418-0.521 0.229-1.139 0.094-1.471-0.362 0.768-0.339 1.648-0.359 2.468-0.371v-0.002z"></path>
</symbol>
</defs>
</svg>
